<?xml version="1.0" encoding="utf-8"?>
<!-- Generator: Adobe Illustrator 16.0.3, SVG Export Plug-In . SVG Version: 6.00 Build 0)  -->
<!DOCTYPE svg PUBLIC "-//W3C//DTD SVG 1.1//EN" "http://www.w3.org/Graphics/SVG/1.1/DTD/svg11.dtd">
<svg version="1.1" id="Layer_1" xmlns="http://www.w3.org/2000/svg" xmlns:xlink="http://www.w3.org/1999/xlink" x="0px" y="0px"
	 width="556px" height="241px" viewBox="111.445 50.14 556 241" enable-background="new 111.445 50.14 556 241"
	 xml:space="preserve">
<g>
	<defs>
		<rect id="SVGID_1_" x="24.092" y="0" width="793.707" height="595.281"/>
	</defs>
	<clipPath id="SVGID_2_">
		<use xlink:href="#SVGID_1_"  overflow="visible"/>
	</clipPath>
	<g clip-path="url(#SVGID_2_)">
		<path fill-opacity="0" d="M24.092,0h793.707v595.281H24.092V0z"/>
		<path fill-opacity="0" d="M130.307,52.248h141.887v32.566H130.307V52.248z"/>
		<path fill="#38761D" d="M141.038,73.113v-9.132h-3.416v-1.223h8.199v1.223h-3.415v9.132H141.038z M147.073,73.113V62.759h1.271
			v3.718c0.59-0.687,1.336-1.029,2.24-1.029c0.558,0,1.038,0.109,1.441,0.327c0.412,0.218,0.707,0.521,0.884,0.908
			c0.178,0.388,0.267,0.948,0.267,1.684v4.747h-1.271v-4.747c0-0.638-0.137-1.103-0.412-1.394c-0.274-0.29-0.666-0.436-1.174-0.436
			c-0.372,0-0.723,0.101-1.054,0.303c-0.331,0.194-0.569,0.456-0.715,0.787c-0.138,0.331-0.206,0.791-0.206,1.381v4.105H147.073z
			 M155.115,64.223v-1.465h1.271v1.465H155.115z M155.115,73.113v-7.496h1.271v7.496H155.115z M158.316,73.113v-7.496h1.138v1.138
			c0.291-0.532,0.558-0.884,0.8-1.054c0.25-0.169,0.524-0.254,0.823-0.254c0.428,0,0.864,0.137,1.308,0.412l-0.436,1.175
			c-0.314-0.187-0.626-0.279-0.933-0.279c-0.282,0-0.533,0.085-0.751,0.255c-0.218,0.169-0.375,0.399-0.472,0.69
			c-0.146,0.452-0.219,0.948-0.219,1.489v3.924H158.316z M168,73.113v-0.944c-0.468,0.742-1.167,1.114-2.095,1.114
			c-0.598,0-1.146-0.166-1.647-0.497s-0.889-0.791-1.163-1.38c-0.274-0.59-0.411-1.269-0.411-2.035c0-0.751,0.125-1.429,0.375-2.034
			c0.25-0.614,0.622-1.082,1.114-1.405c0.501-0.323,1.062-0.484,1.684-0.484c0.452,0,0.852,0.097,1.199,0.291
			c0.354,0.186,0.642,0.432,0.859,0.738v-3.718h1.271v10.354H168z M163.991,69.371c0,0.961,0.202,1.68,0.605,2.156
			c0.404,0.476,0.88,0.714,1.43,0.714c0.557,0,1.029-0.226,1.417-0.678c0.387-0.461,0.581-1.155,0.581-2.083
			c0-1.025-0.198-1.776-0.594-2.253c-0.396-0.484-0.884-0.727-1.465-0.727c-0.558,0-1.025,0.229-1.405,0.69
			C164.18,67.651,163.991,68.378,163.991,69.371z M175.203,75.983V65.617h1.15v0.969c0.275-0.38,0.582-0.662,0.921-0.848
			c0.347-0.194,0.767-0.291,1.26-0.291c0.638,0,1.198,0.165,1.684,0.496c0.492,0.323,0.863,0.787,1.114,1.394
			c0.25,0.597,0.375,1.255,0.375,1.974c0,0.767-0.138,1.457-0.412,2.071c-0.274,0.613-0.674,1.086-1.198,1.417
			c-0.525,0.322-1.078,0.484-1.659,0.484c-0.42,0-0.8-0.089-1.139-0.267s-0.614-0.403-0.824-0.679v3.646H175.203z M176.353,69.407
			c0,0.961,0.194,1.676,0.582,2.144c0.396,0.461,0.867,0.69,1.417,0.69c0.564,0,1.05-0.238,1.453-0.714
			c0.403-0.485,0.605-1.228,0.605-2.229c0-0.953-0.198-1.668-0.594-2.144c-0.388-0.477-0.855-0.715-1.404-0.715
			c-0.541,0-1.021,0.254-1.441,0.763C176.559,67.704,176.353,68.438,176.353,69.407z M188.138,72.193
			c-0.477,0.396-0.933,0.678-1.369,0.848c-0.428,0.161-0.892,0.242-1.393,0.242c-0.823,0-1.457-0.202-1.901-0.605
			c-0.444-0.404-0.666-0.917-0.666-1.538c0-0.372,0.085-0.707,0.255-1.006c0.169-0.307,0.387-0.549,0.653-0.727
			c0.274-0.186,0.582-0.327,0.921-0.424c0.242-0.064,0.617-0.129,1.126-0.193c1.025-0.121,1.78-0.267,2.265-0.437
			c0.008-0.178,0.013-0.286,0.013-0.327c0-0.517-0.121-0.884-0.363-1.102c-0.323-0.282-0.808-0.424-1.454-0.424
			c-0.597,0-1.037,0.104-1.319,0.314c-0.283,0.21-0.493,0.577-0.63,1.103l-1.248-0.17c0.113-0.524,0.299-0.948,0.558-1.271
			c0.258-0.331,0.634-0.585,1.126-0.763s1.058-0.267,1.695-0.267c0.646,0,1.167,0.076,1.563,0.23
			c0.404,0.145,0.698,0.335,0.885,0.568c0.193,0.227,0.326,0.513,0.399,0.86c0.04,0.218,0.061,0.609,0.061,1.175v1.695
			c0,1.179,0.028,1.926,0.085,2.24c0.056,0.308,0.161,0.606,0.314,0.896h-1.32C188.256,72.846,188.171,72.54,188.138,72.193z
			 M188.029,69.346c-0.46,0.194-1.15,0.355-2.07,0.484c-0.525,0.073-0.896,0.158-1.114,0.255c-0.219,0.097-0.388,0.233-0.509,0.411
			c-0.113,0.178-0.17,0.38-0.17,0.605c0,0.34,0.129,0.622,0.388,0.849c0.259,0.226,0.634,0.339,1.126,0.339
			c0.484,0,0.917-0.105,1.296-0.315c0.388-0.218,0.67-0.513,0.848-0.884c0.138-0.291,0.206-0.715,0.206-1.271V69.346z
			 M191.275,73.113v-7.496h1.139v1.138c0.291-0.532,0.558-0.884,0.8-1.054c0.25-0.169,0.524-0.254,0.823-0.254
			c0.428,0,0.864,0.137,1.308,0.412l-0.436,1.175c-0.315-0.187-0.626-0.279-0.933-0.279c-0.282,0-0.533,0.085-0.751,0.255
			c-0.218,0.169-0.375,0.399-0.473,0.69c-0.145,0.452-0.218,0.948-0.218,1.489v3.924H191.275z M198.877,71.974l0.182,1.127
			c-0.355,0.072-0.674,0.108-0.957,0.108c-0.46,0-0.819-0.072-1.078-0.218c-0.25-0.146-0.428-0.335-0.532-0.569
			c-0.105-0.242-0.157-0.742-0.157-1.502v-4.323h-0.933v-0.98h0.933v-1.854l1.259-0.763v2.616h1.284v0.98h-1.284v4.396
			c0,0.355,0.021,0.585,0.061,0.69c0.049,0.104,0.121,0.189,0.219,0.254c0.104,0.057,0.254,0.085,0.447,0.085
			C198.457,72.023,198.642,72.007,198.877,71.974z M200.06,75.996l-0.146-1.188c0.282,0.073,0.524,0.109,0.727,0.109
			c0.283,0,0.509-0.049,0.679-0.146c0.169-0.089,0.311-0.218,0.424-0.388c0.08-0.129,0.21-0.443,0.388-0.944
			c0.023-0.072,0.061-0.178,0.108-0.314l-2.846-7.509h1.368l1.563,4.335c0.202,0.558,0.384,1.139,0.545,1.744
			c0.146-0.581,0.319-1.15,0.521-1.707l1.611-4.372h1.271l-2.858,7.617c-0.307,0.832-0.545,1.401-0.715,1.708
			c-0.226,0.42-0.484,0.727-0.774,0.92c-0.291,0.194-0.638,0.291-1.042,0.291C200.634,76.153,200.359,76.1,200.06,75.996z
			 M210.86,70.873l1.26-0.194c0.064,0.501,0.258,0.889,0.581,1.163c0.323,0.267,0.775,0.399,1.356,0.399s1.014-0.117,1.296-0.351
			c0.282-0.242,0.424-0.525,0.424-0.849c0-0.282-0.125-0.508-0.376-0.678c-0.169-0.113-0.601-0.254-1.295-0.424
			c-0.938-0.242-1.587-0.448-1.95-0.618c-0.355-0.169-0.626-0.403-0.812-0.702c-0.186-0.307-0.278-0.646-0.278-1.018
			c0-0.331,0.076-0.638,0.229-0.92c0.153-0.291,0.363-0.529,0.63-0.715c0.194-0.146,0.46-0.267,0.8-0.363
			c0.347-0.104,0.714-0.157,1.102-0.157c0.59,0,1.106,0.085,1.551,0.254c0.443,0.17,0.771,0.4,0.98,0.69
			c0.218,0.291,0.367,0.679,0.448,1.163l-1.247,0.169c-0.057-0.387-0.223-0.689-0.497-0.908c-0.267-0.218-0.646-0.327-1.139-0.327
			c-0.589,0-1.009,0.098-1.259,0.291c-0.242,0.193-0.363,0.42-0.363,0.679c0,0.161,0.048,0.311,0.145,0.447
			c0.105,0.138,0.271,0.251,0.497,0.34c0.121,0.048,0.492,0.157,1.114,0.327c0.904,0.233,1.534,0.428,1.89,0.581
			c0.354,0.153,0.634,0.375,0.835,0.666c0.202,0.291,0.303,0.654,0.303,1.09c0,0.428-0.125,0.827-0.375,1.199
			c-0.242,0.371-0.598,0.662-1.065,0.872c-0.469,0.201-0.998,0.303-1.587,0.303c-0.969,0-1.712-0.202-2.229-0.605
			C211.32,72.273,210.997,71.672,210.86,70.873z M223.734,70.703l1.308,0.157c-0.21,0.768-0.593,1.365-1.15,1.793
			c-0.557,0.42-1.271,0.63-2.144,0.63c-1.098,0-1.97-0.335-2.616-1.006c-0.638-0.678-0.957-1.627-0.957-2.846
			c0-1.268,0.323-2.249,0.97-2.943c0.653-0.694,1.497-1.041,2.531-1.041c1.001,0,1.816,0.343,2.446,1.029
			c0.638,0.679,0.956,1.635,0.956,2.87c0,0.081,0,0.194,0,0.339h-5.595c0.048,0.824,0.282,1.458,0.702,1.902
			c0.42,0.436,0.94,0.653,1.563,0.653c0.468,0,0.868-0.121,1.199-0.363C223.278,71.628,223.54,71.236,223.734,70.703z
			 M219.555,68.644h4.19c-0.057-0.63-0.218-1.103-0.484-1.417c-0.403-0.492-0.929-0.739-1.574-0.739
			c-0.581,0-1.074,0.198-1.478,0.594C219.814,67.469,219.596,67.99,219.555,68.644z M226.629,73.113v-7.496h1.139v1.138
			c0.291-0.532,0.558-0.884,0.8-1.054c0.25-0.169,0.524-0.254,0.823-0.254c0.428,0,0.864,0.137,1.308,0.412l-0.436,1.175
			c-0.315-0.187-0.626-0.279-0.933-0.279c-0.282,0-0.533,0.085-0.751,0.255c-0.218,0.169-0.375,0.399-0.473,0.69
			c-0.145,0.452-0.218,0.948-0.218,1.489v3.924H226.629z M233.54,73.113l-2.858-7.496h1.345l1.61,4.493
			c0.17,0.484,0.331,0.984,0.484,1.501c0.105-0.396,0.263-0.867,0.473-1.417l1.659-4.577h1.308l-2.834,7.496H233.54z
			 M238.687,64.223v-1.465h1.271v1.465H238.687z M238.687,73.113v-7.496h1.271v7.496H238.687z M246.793,70.364l1.247,0.17
			c-0.137,0.855-0.488,1.529-1.054,2.022c-0.557,0.484-1.247,0.727-2.071,0.727c-1.025,0-1.849-0.335-2.47-1.006
			c-0.622-0.67-0.933-1.631-0.933-2.882c0-0.815,0.133-1.526,0.399-2.132s0.674-1.058,1.223-1.356c0.55-0.307,1.146-0.46,1.793-0.46
			c0.815,0,1.481,0.206,1.998,0.617c0.517,0.412,0.848,0.997,0.993,1.757l-1.235,0.182c-0.121-0.501-0.331-0.876-0.63-1.127
			c-0.299-0.258-0.658-0.388-1.078-0.388c-0.638,0-1.158,0.23-1.562,0.69c-0.404,0.461-0.605,1.188-0.605,2.181
			c0,1.009,0.193,1.743,0.581,2.204c0.388,0.452,0.892,0.678,1.514,0.678c0.501,0,0.916-0.153,1.247-0.46
			C246.49,71.474,246.704,71.002,246.793,70.364z M254.265,70.703l1.308,0.157c-0.21,0.768-0.594,1.365-1.15,1.793
			c-0.558,0.42-1.271,0.63-2.144,0.63c-1.099,0-1.971-0.335-2.616-1.006c-0.638-0.678-0.957-1.627-0.957-2.846
			c0-1.268,0.323-2.249,0.969-2.943c0.654-0.694,1.498-1.041,2.531-1.041c1.001,0,1.817,0.343,2.446,1.029
			c0.639,0.679,0.957,1.635,0.957,2.87c0,0.081,0,0.194,0,0.339h-5.595c0.048,0.824,0.282,1.458,0.702,1.902
			c0.42,0.436,0.94,0.653,1.563,0.653c0.468,0,0.867-0.121,1.198-0.363C253.808,71.628,254.071,71.236,254.265,70.703z
			 M250.087,68.644h4.19c-0.057-0.63-0.218-1.103-0.484-1.417c-0.404-0.492-0.929-0.739-1.574-0.739
			c-0.582,0-1.074,0.198-1.478,0.594C250.345,67.469,250.127,67.99,250.087,68.644z M256.664,70.873l1.259-0.194
			c0.065,0.501,0.259,0.889,0.582,1.163c0.322,0.267,0.774,0.399,1.356,0.399c0.581,0,1.013-0.117,1.296-0.351
			c0.282-0.242,0.424-0.525,0.424-0.849c0-0.282-0.125-0.508-0.376-0.678c-0.169-0.113-0.602-0.254-1.296-0.424
			c-0.937-0.242-1.586-0.448-1.949-0.618c-0.355-0.169-0.626-0.403-0.812-0.702c-0.186-0.307-0.279-0.646-0.279-1.018
			c0-0.331,0.077-0.638,0.23-0.92c0.153-0.291,0.363-0.529,0.63-0.715c0.193-0.146,0.46-0.267,0.799-0.363
			c0.348-0.104,0.715-0.157,1.103-0.157c0.59,0,1.106,0.085,1.55,0.254c0.444,0.17,0.771,0.4,0.981,0.69
			c0.218,0.291,0.367,0.679,0.448,1.163l-1.248,0.169c-0.056-0.387-0.222-0.689-0.496-0.908c-0.267-0.218-0.646-0.327-1.139-0.327
			c-0.589,0-1.009,0.098-1.26,0.291c-0.242,0.193-0.363,0.42-0.363,0.679c0,0.161,0.049,0.311,0.146,0.447
			c0.105,0.138,0.271,0.251,0.497,0.34c0.121,0.048,0.492,0.157,1.114,0.327c0.904,0.233,1.534,0.428,1.889,0.581
			c0.355,0.153,0.634,0.375,0.836,0.666s0.303,0.654,0.303,1.09c0,0.428-0.125,0.827-0.375,1.199
			c-0.242,0.371-0.598,0.662-1.066,0.872c-0.468,0.201-0.997,0.303-1.586,0.303c-0.969,0-1.712-0.202-2.229-0.605
			C257.124,72.273,256.801,71.672,256.664,70.873z"/>
		<path fill="#CFE2F3" d="M130.307,225.245L130.307,225.245c0-5.765,4.672-10.438,10.437-10.438h497.971
			c2.768,0,5.423,1.1,7.38,3.058c1.957,1.957,3.057,4.611,3.057,7.38v41.745c0,5.764-4.673,10.437-10.437,10.437H140.744
			c-5.765,0-10.437-4.673-10.437-10.437V225.245z"/>
		<path fill="none" stroke="#000000" stroke-linejoin="round" stroke-miterlimit="10" d="M130.307,225.245L130.307,225.245
			c0-5.765,4.672-10.438,10.437-10.438h497.971c2.768,0,5.423,1.1,7.38,3.058c1.957,1.957,3.057,4.611,3.057,7.38v41.745
			c0,5.764-4.673,10.437-10.437,10.437H140.744c-5.765,0-10.437-4.673-10.437-10.437V225.245z"/>
		<path d="M296.395,242.955v-10.355h7.097v1.757h-5.001v2.446h4.312v1.756h-4.312v4.396H296.395z M304.744,239.103
			c0-0.662,0.161-1.3,0.484-1.913c0.323-0.622,0.783-1.095,1.381-1.417c0.598-0.323,1.264-0.484,1.998-0.484
			c1.131,0,2.059,0.367,2.786,1.102c0.727,0.734,1.09,1.667,1.09,2.798c0,1.13-0.367,2.071-1.103,2.821
			c-0.734,0.743-1.655,1.114-2.761,1.114c-0.687,0-1.345-0.153-1.975-0.46c-0.622-0.314-1.094-0.771-1.417-1.368
			C304.905,240.69,304.744,239.959,304.744,239.103z M306.779,239.2c0,0.751,0.173,1.324,0.521,1.72
			c0.355,0.388,0.791,0.582,1.308,0.582s0.949-0.194,1.296-0.582c0.355-0.396,0.533-0.973,0.533-1.731
			c0-0.734-0.178-1.3-0.533-1.695c-0.347-0.396-0.779-0.594-1.296-0.594s-0.952,0.198-1.308,0.594
			C306.952,237.888,306.779,238.458,306.779,239.2z M318.967,242.955v-1.127c-0.274,0.404-0.634,0.723-1.078,0.957
			c-0.444,0.227-0.912,0.339-1.404,0.339c-0.501,0-0.953-0.108-1.356-0.326c-0.396-0.227-0.687-0.537-0.872-0.933
			c-0.178-0.404-0.267-0.957-0.267-1.659v-4.748h1.986v3.439c0,1.058,0.036,1.708,0.108,1.95c0.073,0.234,0.206,0.42,0.4,0.557
			c0.193,0.138,0.439,0.206,0.738,0.206c0.339,0,0.642-0.093,0.908-0.278s0.448-0.416,0.545-0.69
			c0.105-0.274,0.157-0.948,0.157-2.022v-3.161h1.975v7.497H318.967z M329.689,242.955h-1.986v-3.827
			c0-0.808-0.045-1.328-0.134-1.563c-0.08-0.242-0.218-0.428-0.411-0.557c-0.186-0.138-0.412-0.206-0.679-0.206
			c-0.347,0-0.658,0.097-0.933,0.29c-0.274,0.187-0.464,0.437-0.569,0.751c-0.097,0.307-0.145,0.88-0.145,1.72v3.392h-1.975v-7.497
			h1.841v1.103c0.654-0.848,1.478-1.271,2.471-1.271c0.437,0,0.836,0.08,1.199,0.242c0.363,0.153,0.638,0.354,0.823,0.605
			c0.186,0.242,0.315,0.521,0.388,0.835c0.072,0.308,0.109,0.747,0.109,1.32V242.955z M338.583,242.955h-1.854v-1.103
			c-0.307,0.428-0.67,0.747-1.09,0.957c-0.412,0.21-0.827,0.314-1.247,0.314c-0.864,0-1.603-0.347-2.217-1.041
			c-0.613-0.694-0.92-1.663-0.92-2.907c0-1.268,0.299-2.232,0.896-2.895c0.598-0.661,1.353-0.992,2.266-0.992
			c0.839,0,1.565,0.347,2.18,1.041v-3.73h1.986V242.955z M333.278,239.043c0,0.8,0.113,1.377,0.339,1.732
			c0.314,0.524,0.759,0.787,1.332,0.787c0.46,0,0.848-0.194,1.163-0.582c0.322-0.396,0.484-0.977,0.484-1.743
			c0-0.864-0.157-1.486-0.473-1.865c-0.307-0.38-0.702-0.569-1.187-0.569c-0.469,0-0.864,0.189-1.188,0.569
			C333.435,237.743,333.278,238.3,333.278,239.043z M342.014,237.747l-1.805-0.327c0.21-0.727,0.561-1.264,1.054-1.61
			c0.492-0.348,1.227-0.521,2.204-0.521c0.88,0,1.538,0.104,1.974,0.314c0.437,0.21,0.739,0.477,0.908,0.8
			c0.178,0.322,0.267,0.912,0.267,1.768l-0.012,2.325c0,0.654,0.028,1.139,0.085,1.453c0.064,0.315,0.186,0.65,0.363,1.006h-1.962
			c-0.057-0.129-0.121-0.323-0.194-0.581c-0.032-0.121-0.057-0.202-0.072-0.242c-0.339,0.33-0.702,0.581-1.09,0.75
			c-0.38,0.162-0.792,0.242-1.235,0.242c-0.768,0-1.373-0.21-1.817-0.629c-0.443-0.42-0.666-0.949-0.666-1.587
			c0-0.428,0.102-0.808,0.303-1.139c0.202-0.331,0.484-0.581,0.849-0.751c0.363-0.178,0.888-0.335,1.574-0.472
			c0.929-0.17,1.57-0.331,1.926-0.484v-0.194c0-0.388-0.093-0.662-0.279-0.823c-0.186-0.162-0.541-0.242-1.065-0.242
			c-0.355,0-0.634,0.072-0.836,0.218C342.293,237.158,342.135,237.4,342.014,237.747z M344.667,239.358
			c-0.251,0.08-0.654,0.182-1.212,0.303c-0.549,0.112-0.908,0.226-1.077,0.339c-0.259,0.186-0.388,0.42-0.388,0.702
			c0,0.274,0.104,0.517,0.314,0.727c0.21,0.202,0.473,0.303,0.787,0.303c0.363,0,0.707-0.121,1.03-0.363
			c0.242-0.178,0.399-0.396,0.472-0.653c0.049-0.17,0.073-0.493,0.073-0.97V239.358z M352.018,235.458v1.574h-1.356v3.028
			c0,0.613,0.012,0.973,0.036,1.078c0.024,0.097,0.081,0.177,0.17,0.242c0.097,0.064,0.21,0.097,0.339,0.097
			c0.186,0,0.452-0.064,0.8-0.194l0.169,1.551c-0.46,0.193-0.98,0.29-1.563,0.29c-0.363,0-0.69-0.061-0.98-0.182
			c-0.283-0.121-0.492-0.274-0.63-0.46c-0.129-0.193-0.218-0.452-0.267-0.775c-0.048-0.233-0.072-0.702-0.072-1.404v-3.271h-0.908
			v-1.574h0.908v-1.489l1.998-1.163v2.652H352.018z M353.394,234.44v-1.841h1.986v1.841H353.394z M353.394,242.955v-7.497h1.986
			v7.497H353.394z M356.952,239.103c0-0.662,0.161-1.3,0.484-1.913c0.322-0.622,0.783-1.095,1.381-1.417
			c0.597-0.323,1.263-0.484,1.998-0.484c1.13,0,2.059,0.367,2.785,1.102s1.09,1.667,1.09,2.798c0,1.13-0.367,2.071-1.102,2.821
			c-0.735,0.743-1.655,1.114-2.762,1.114c-0.687,0-1.344-0.153-1.974-0.46c-0.622-0.314-1.095-0.771-1.417-1.368
			C357.113,240.69,356.952,239.959,356.952,239.103z M358.986,239.2c0,0.751,0.174,1.324,0.521,1.72
			c0.355,0.388,0.792,0.582,1.309,0.582s0.948-0.194,1.296-0.582c0.355-0.396,0.532-0.973,0.532-1.731
			c0-0.734-0.177-1.3-0.532-1.695c-0.348-0.396-0.779-0.594-1.296-0.594s-0.953,0.198-1.309,0.594
			C359.16,237.888,358.986,238.458,358.986,239.2z M373.063,242.955h-1.986v-3.827c0-0.808-0.044-1.328-0.133-1.563
			c-0.081-0.242-0.218-0.428-0.412-0.557c-0.186-0.138-0.411-0.206-0.678-0.206c-0.348,0-0.658,0.097-0.933,0.29
			c-0.274,0.187-0.465,0.437-0.569,0.751c-0.097,0.307-0.146,0.88-0.146,1.72v3.392h-1.974v-7.497h1.841v1.103
			c0.653-0.848,1.478-1.271,2.471-1.271c0.436,0,0.835,0.08,1.198,0.242c0.363,0.153,0.639,0.354,0.824,0.605
			c0.186,0.242,0.314,0.521,0.388,0.835c0.072,0.308,0.108,0.747,0.108,1.32V242.955z M376.555,237.747l-1.805-0.327
			c0.21-0.727,0.562-1.264,1.054-1.61c0.493-0.348,1.228-0.521,2.204-0.521c0.88,0,1.538,0.104,1.975,0.314
			c0.436,0.21,0.738,0.477,0.908,0.8c0.178,0.322,0.267,0.912,0.267,1.768l-0.013,2.325c0,0.654,0.028,1.139,0.085,1.453
			c0.064,0.315,0.186,0.65,0.363,1.006h-1.962c-0.057-0.129-0.121-0.323-0.193-0.581c-0.032-0.121-0.057-0.202-0.073-0.242
			c-0.339,0.33-0.702,0.581-1.09,0.75c-0.379,0.162-0.791,0.242-1.235,0.242c-0.767,0-1.372-0.21-1.816-0.629
			c-0.444-0.42-0.666-0.949-0.666-1.587c0-0.428,0.101-0.808,0.303-1.139s0.484-0.581,0.848-0.751
			c0.363-0.178,0.888-0.335,1.574-0.472c0.929-0.17,1.57-0.331,1.926-0.484v-0.194c0-0.388-0.093-0.662-0.278-0.823
			c-0.186-0.162-0.541-0.242-1.066-0.242c-0.354,0-0.634,0.072-0.835,0.218C376.834,237.158,376.677,237.4,376.555,237.747z
			 M379.208,239.358c-0.25,0.08-0.654,0.182-1.211,0.303c-0.549,0.112-0.908,0.226-1.078,0.339c-0.258,0.186-0.388,0.42-0.388,0.702
			c0,0.274,0.105,0.517,0.315,0.727c0.21,0.202,0.472,0.303,0.787,0.303c0.363,0,0.706-0.121,1.029-0.363
			c0.242-0.178,0.399-0.396,0.473-0.653c0.048-0.17,0.072-0.493,0.072-0.97V239.358z M383.12,242.955v-10.355h1.986v10.355H383.12z
			 M391.155,234.44v-1.841h1.986v1.841H391.155z M391.155,242.955v-7.497h1.986v7.497H391.155z M401.992,242.955h-1.986v-3.827
			c0-0.808-0.045-1.328-0.134-1.563c-0.08-0.242-0.218-0.428-0.411-0.557c-0.187-0.138-0.412-0.206-0.679-0.206
			c-0.347,0-0.658,0.097-0.933,0.29c-0.274,0.187-0.464,0.437-0.569,0.751c-0.097,0.307-0.145,0.88-0.145,1.72v3.392h-1.975v-7.497
			h1.841v1.103c0.654-0.848,1.478-1.271,2.471-1.271c0.437,0,0.836,0.08,1.199,0.242c0.363,0.153,0.638,0.354,0.823,0.605
			c0.186,0.242,0.315,0.521,0.388,0.835c0.072,0.308,0.109,0.747,0.109,1.32V242.955z M403.135,235.458h1.102v-0.569
			c0-0.63,0.064-1.098,0.194-1.404c0.137-0.315,0.383-0.569,0.738-0.764c0.363-0.193,0.823-0.29,1.381-0.29
			c0.565,0,1.118,0.085,1.659,0.254l-0.278,1.381c-0.315-0.072-0.618-0.109-0.908-0.109c-0.283,0-0.489,0.069-0.618,0.206
			c-0.121,0.129-0.182,0.384-0.182,0.764v0.532h1.478v1.563h-1.478v5.935h-1.986v-5.935h-1.102V235.458z M410.723,242.955h-1.986
			v-7.497h1.841v1.066c0.314-0.509,0.598-0.84,0.848-0.993c0.25-0.162,0.537-0.242,0.859-0.242c0.452,0,0.889,0.125,1.309,0.375
			l-0.618,1.731c-0.331-0.218-0.642-0.326-0.933-0.326c-0.274,0-0.508,0.076-0.702,0.229c-0.193,0.153-0.347,0.433-0.46,0.836
			c-0.105,0.396-0.157,1.231-0.157,2.507V242.955z M415.927,237.747l-1.805-0.327c0.21-0.727,0.562-1.264,1.054-1.61
			c0.493-0.348,1.228-0.521,2.204-0.521c0.88,0,1.538,0.104,1.975,0.314c0.436,0.21,0.738,0.477,0.908,0.8
			c0.178,0.322,0.267,0.912,0.267,1.768l-0.013,2.325c0,0.654,0.028,1.139,0.085,1.453c0.064,0.315,0.186,0.65,0.363,1.006h-1.962
			c-0.057-0.129-0.121-0.323-0.193-0.581c-0.032-0.121-0.057-0.202-0.073-0.242c-0.339,0.33-0.702,0.581-1.09,0.75
			c-0.379,0.162-0.791,0.242-1.235,0.242c-0.767,0-1.372-0.21-1.816-0.629c-0.444-0.42-0.666-0.949-0.666-1.587
			c0-0.428,0.101-0.808,0.303-1.139s0.484-0.581,0.848-0.751c0.363-0.178,0.888-0.335,1.574-0.472
			c0.929-0.17,1.57-0.331,1.926-0.484v-0.194c0-0.388-0.093-0.662-0.278-0.823c-0.186-0.162-0.541-0.242-1.066-0.242
			c-0.354,0-0.634,0.072-0.835,0.218C416.205,237.158,416.048,237.4,415.927,237.747z M418.579,239.358
			c-0.25,0.08-0.654,0.182-1.211,0.303c-0.549,0.112-0.908,0.226-1.078,0.339c-0.258,0.186-0.388,0.42-0.388,0.702
			c0,0.274,0.105,0.517,0.315,0.727c0.21,0.202,0.472,0.303,0.787,0.303c0.363,0,0.706-0.121,1.029-0.363
			c0.242-0.178,0.399-0.396,0.473-0.653c0.048-0.17,0.072-0.493,0.072-0.97V239.358z M421.789,240.811l1.986-0.303
			c0.089,0.388,0.263,0.682,0.521,0.884c0.259,0.202,0.622,0.303,1.091,0.303c0.508,0,0.892-0.097,1.15-0.291
			c0.178-0.129,0.267-0.303,0.267-0.521c0-0.153-0.049-0.278-0.146-0.375c-0.097-0.098-0.319-0.186-0.666-0.267
			c-1.599-0.355-2.612-0.679-3.04-0.969c-0.59-0.404-0.884-0.965-0.884-1.684c0-0.654,0.254-1.199,0.763-1.635
			c0.517-0.444,1.312-0.666,2.386-0.666c1.025,0,1.788,0.169,2.289,0.508c0.5,0.331,0.844,0.824,1.029,1.478l-1.865,0.34
			c-0.08-0.291-0.234-0.513-0.46-0.666c-0.218-0.153-0.537-0.23-0.957-0.23c-0.517,0-0.888,0.072-1.114,0.218
			c-0.153,0.105-0.229,0.238-0.229,0.399c0,0.138,0.064,0.259,0.193,0.363c0.178,0.13,0.795,0.315,1.853,0.558
			c1.059,0.234,1.797,0.528,2.217,0.884c0.412,0.348,0.617,0.836,0.617,1.466c0,0.694-0.286,1.288-0.859,1.78
			s-1.421,0.738-2.543,0.738c-1.025,0-1.837-0.205-2.435-0.617C422.362,242.087,421.974,241.521,421.789,240.811z M433.973,235.458
			v1.574h-1.356v3.028c0,0.613,0.012,0.973,0.036,1.078c0.024,0.097,0.081,0.177,0.17,0.242c0.097,0.064,0.21,0.097,0.339,0.097
			c0.186,0,0.452-0.064,0.8-0.194l0.169,1.551c-0.46,0.193-0.98,0.29-1.563,0.29c-0.363,0-0.69-0.061-0.98-0.182
			c-0.283-0.121-0.492-0.274-0.63-0.46c-0.129-0.193-0.218-0.452-0.267-0.775c-0.049-0.233-0.072-0.702-0.072-1.404v-3.271h-0.908
			v-1.574h0.908v-1.489l1.998-1.163v2.652H433.973z M437.251,242.955h-1.986v-7.497h1.841v1.066c0.315-0.509,0.598-0.84,0.848-0.993
			c0.251-0.162,0.537-0.242,0.86-0.242c0.452,0,0.888,0.125,1.308,0.375l-0.617,1.731c-0.331-0.218-0.643-0.326-0.933-0.326
			c-0.274,0-0.509,0.076-0.702,0.229c-0.194,0.153-0.348,0.433-0.461,0.836c-0.104,0.396-0.157,1.231-0.157,2.507V242.955z
			 M445.906,242.955v-1.127c-0.274,0.404-0.634,0.723-1.078,0.957c-0.444,0.227-0.912,0.339-1.404,0.339
			c-0.501,0-0.953-0.108-1.356-0.326c-0.396-0.227-0.687-0.537-0.872-0.933c-0.178-0.404-0.267-0.957-0.267-1.659v-4.748h1.986
			v3.439c0,1.058,0.036,1.708,0.108,1.95c0.073,0.234,0.206,0.42,0.4,0.557c0.193,0.138,0.439,0.206,0.738,0.206
			c0.339,0,0.642-0.093,0.908-0.278s0.448-0.416,0.545-0.69c0.105-0.274,0.158-0.948,0.158-2.022v-3.161h1.974v7.497H445.906z
			 M456.349,237.675l-1.962,0.351c-0.064-0.388-0.214-0.678-0.448-0.872c-0.233-0.201-0.536-0.303-0.908-0.303
			c-0.492,0-0.888,0.17-1.187,0.509c-0.291,0.339-0.436,0.908-0.436,1.708c0,0.896,0.149,1.525,0.447,1.89
			c0.299,0.363,0.699,0.545,1.199,0.545c0.38,0,0.69-0.105,0.933-0.315c0.242-0.218,0.412-0.585,0.509-1.102l1.95,0.326
			c-0.202,0.896-0.594,1.575-1.175,2.035c-0.573,0.452-1.341,0.678-2.302,0.678c-1.098,0-1.974-0.343-2.628-1.029
			c-0.646-0.694-0.969-1.655-0.969-2.882c0-1.235,0.327-2.196,0.981-2.883c0.653-0.694,1.538-1.041,2.652-1.041
			c0.912,0,1.635,0.197,2.168,0.593C455.716,236.269,456.107,236.867,456.349,237.675z M461.292,235.458v1.574h-1.356v3.028
			c0,0.613,0.012,0.973,0.036,1.078c0.024,0.097,0.081,0.177,0.17,0.242c0.097,0.064,0.21,0.097,0.339,0.097
			c0.186,0,0.452-0.064,0.799-0.194l0.17,1.551c-0.46,0.193-0.98,0.29-1.563,0.29c-0.363,0-0.69-0.061-0.98-0.182
			c-0.283-0.121-0.493-0.274-0.63-0.46c-0.129-0.193-0.218-0.452-0.267-0.775c-0.049-0.233-0.072-0.702-0.072-1.404v-3.271h-0.909
			v-1.574h0.909v-1.489l1.998-1.163v2.652H461.292z M467.596,242.955v-1.127c-0.274,0.404-0.634,0.723-1.077,0.957
			c-0.444,0.227-0.913,0.339-1.405,0.339c-0.501,0-0.953-0.108-1.356-0.326c-0.396-0.227-0.687-0.537-0.872-0.933
			c-0.178-0.404-0.267-0.957-0.267-1.659v-4.748h1.986v3.439c0,1.058,0.036,1.708,0.109,1.95c0.072,0.234,0.206,0.42,0.399,0.557
			c0.193,0.138,0.44,0.206,0.739,0.206c0.339,0,0.642-0.093,0.908-0.278c0.266-0.186,0.447-0.416,0.545-0.69
			c0.104-0.274,0.157-0.948,0.157-2.022v-3.161h1.974v7.497H467.596z M473.402,242.955h-1.986v-7.497h1.841v1.066
			c0.315-0.509,0.598-0.84,0.848-0.993c0.251-0.162,0.537-0.242,0.86-0.242c0.452,0,0.888,0.125,1.308,0.375l-0.617,1.731
			c-0.331-0.218-0.643-0.326-0.933-0.326c-0.274,0-0.509,0.076-0.703,0.229c-0.193,0.153-0.347,0.433-0.46,0.836
			c-0.104,0.396-0.157,1.231-0.157,2.507V242.955z M481.464,240.569l1.975,0.327c-0.251,0.727-0.65,1.279-1.199,1.659
			c-0.549,0.379-1.235,0.568-2.059,0.568c-1.3,0-2.265-0.428-2.895-1.283c-0.493-0.679-0.739-1.538-0.739-2.58
			c0-1.243,0.323-2.216,0.969-2.918c0.654-0.703,1.478-1.054,2.471-1.054c1.114,0,1.994,0.367,2.641,1.102
			c0.646,0.734,0.952,1.865,0.92,3.392h-4.965c0.016,0.589,0.173,1.049,0.472,1.38c0.307,0.323,0.69,0.484,1.15,0.484
			c0.308,0,0.565-0.084,0.775-0.254C481.197,241.222,481.359,240.948,481.464,240.569z M481.585,238.558
			c-0.016-0.573-0.165-1.009-0.448-1.308c-0.282-0.299-0.625-0.448-1.029-0.448c-0.436,0-0.795,0.157-1.077,0.472
			c-0.283,0.315-0.42,0.743-0.412,1.284H481.585z"/>
		<path d="M211.367,256.374l1.368,0.352c-0.291,1.122-0.808,1.981-1.55,2.579c-0.743,0.59-1.655,0.884-2.737,0.884
			c-1.114,0-2.022-0.226-2.726-0.678c-0.694-0.46-1.227-1.118-1.599-1.975c-0.363-0.863-0.545-1.792-0.545-2.785
			c0-1.074,0.206-2.011,0.618-2.81c0.412-0.808,0.997-1.417,1.756-1.829c0.768-0.42,1.606-0.63,2.52-0.63
			c1.033,0,1.901,0.263,2.604,0.787c0.711,0.525,1.203,1.268,1.478,2.229l-1.345,0.315c-0.242-0.751-0.593-1.296-1.054-1.635
			c-0.452-0.348-1.021-0.521-1.707-0.521c-0.8,0-1.466,0.19-1.998,0.569c-0.533,0.38-0.909,0.893-1.127,1.538
			c-0.218,0.638-0.327,1.3-0.327,1.986c0,0.88,0.13,1.647,0.388,2.301c0.259,0.654,0.658,1.146,1.199,1.478
			c0.541,0.323,1.126,0.484,1.756,0.484c0.768,0,1.417-0.222,1.95-0.666C210.822,257.904,211.18,257.246,211.367,256.374z
			 M213.792,256.253c0-1.389,0.384-2.414,1.15-3.076c0.646-0.558,1.434-0.836,2.362-0.836c1.033,0,1.877,0.339,2.531,1.018
			c0.653,0.67,0.98,1.603,0.98,2.798c0,0.961-0.146,1.72-0.436,2.276c-0.291,0.549-0.715,0.978-1.271,1.284
			c-0.55,0.307-1.151,0.46-1.805,0.46c-1.05,0-1.897-0.335-2.544-1.005C214.115,258.493,213.792,257.52,213.792,256.253z
			 M215.1,256.253c0,0.961,0.206,1.684,0.617,2.168c0.42,0.477,0.949,0.714,1.587,0.714c0.63,0,1.154-0.237,1.574-0.714
			c0.42-0.484,0.63-1.22,0.63-2.204c0-0.929-0.21-1.631-0.63-2.107s-0.944-0.715-1.574-0.715c-0.638,0-1.167,0.238-1.587,0.715
			C215.306,254.577,215.1,255.292,215.1,256.253z M222.306,260.007v-7.496h1.139v1.054c0.234-0.372,0.545-0.666,0.933-0.885
			c0.396-0.226,0.84-0.339,1.332-0.339c0.558,0,1.014,0.117,1.369,0.352c0.354,0.226,0.605,0.545,0.75,0.956
			c0.598-0.871,1.369-1.308,2.313-1.308c0.751,0,1.324,0.206,1.72,0.618c0.404,0.411,0.605,1.045,0.605,1.901v5.146h-1.271v-4.723
			c0-0.509-0.04-0.872-0.121-1.09c-0.081-0.227-0.23-0.408-0.448-0.546c-0.218-0.137-0.472-0.205-0.763-0.205
			c-0.525,0-0.961,0.178-1.308,0.532c-0.348,0.348-0.521,0.904-0.521,1.672v4.359h-1.271v-4.868c0-0.565-0.104-0.989-0.314-1.271
			c-0.21-0.283-0.55-0.424-1.018-0.424c-0.355,0-0.687,0.093-0.993,0.278s-0.529,0.46-0.666,0.823
			c-0.129,0.363-0.194,0.889-0.194,1.574v3.888H222.306z M234.352,260.007v-7.496h1.139v1.054c0.234-0.372,0.545-0.666,0.933-0.885
			c0.396-0.226,0.84-0.339,1.332-0.339c0.557,0,1.014,0.117,1.368,0.352c0.355,0.226,0.605,0.545,0.751,0.956
			c0.598-0.871,1.369-1.308,2.313-1.308c0.751,0,1.324,0.206,1.72,0.618c0.403,0.411,0.605,1.045,0.605,1.901v5.146h-1.271v-4.723
			c0-0.509-0.04-0.872-0.121-1.09c-0.081-0.227-0.23-0.408-0.448-0.546c-0.218-0.137-0.473-0.205-0.763-0.205
			c-0.525,0-0.961,0.178-1.309,0.532c-0.347,0.348-0.521,0.904-0.521,1.672v4.359h-1.271v-4.868c0-0.565-0.105-0.989-0.315-1.271
			c-0.209-0.283-0.549-0.424-1.017-0.424c-0.355,0-0.687,0.093-0.993,0.278s-0.529,0.46-0.666,0.823
			c-0.13,0.363-0.194,0.889-0.194,1.574v3.888H234.352z M245.926,256.253c0-1.389,0.384-2.414,1.15-3.076
			c0.646-0.558,1.434-0.836,2.362-0.836c1.033,0,1.877,0.339,2.531,1.018c0.653,0.67,0.98,1.603,0.98,2.798
			c0,0.961-0.146,1.72-0.436,2.276c-0.291,0.549-0.715,0.978-1.271,1.284c-0.55,0.307-1.151,0.46-1.805,0.46
			c-1.05,0-1.897-0.335-2.544-1.005C246.249,258.493,245.926,257.52,245.926,256.253z M247.234,256.253
			c0,0.961,0.205,1.684,0.617,2.168c0.42,0.477,0.949,0.714,1.587,0.714c0.63,0,1.154-0.237,1.574-0.714
			c0.42-0.484,0.63-1.22,0.63-2.204c0-0.929-0.21-1.631-0.63-2.107s-0.944-0.715-1.574-0.715c-0.638,0-1.167,0.238-1.587,0.715
			C247.439,254.577,247.234,255.292,247.234,256.253z M254.44,260.007v-7.496h1.139v1.065c0.549-0.823,1.345-1.235,2.386-1.235
			c0.452,0,0.868,0.081,1.247,0.242c0.38,0.162,0.662,0.376,0.849,0.642c0.193,0.259,0.326,0.569,0.399,0.933
			c0.048,0.234,0.072,0.646,0.072,1.235v4.614h-1.271v-4.565c0-0.517-0.053-0.9-0.157-1.15c-0.097-0.259-0.271-0.465-0.521-0.618
			c-0.251-0.153-0.545-0.229-0.885-0.229c-0.541,0-1.009,0.173-1.404,0.521c-0.388,0.339-0.582,0.989-0.582,1.95v4.093H254.44z
			 M262.446,260.007v-10.354h1.271v10.354H262.446z M265.635,262.889l-0.146-1.187c0.283,0.072,0.525,0.108,0.728,0.108
			c0.282,0,0.508-0.048,0.678-0.146c0.17-0.089,0.311-0.218,0.424-0.387c0.081-0.13,0.21-0.444,0.388-0.945
			c0.024-0.072,0.061-0.178,0.109-0.314l-2.847-7.509h1.369l1.562,4.336c0.202,0.557,0.384,1.138,0.545,1.743
			c0.146-0.581,0.319-1.15,0.521-1.707l1.61-4.372h1.271l-2.857,7.617c-0.308,0.832-0.546,1.401-0.715,1.708
			c-0.227,0.42-0.484,0.727-0.775,0.921c-0.291,0.193-0.638,0.29-1.041,0.29C266.208,263.047,265.933,262.994,265.635,262.889z
			 M276.47,256.253c0-1.389,0.384-2.414,1.151-3.076c0.646-0.558,1.433-0.836,2.361-0.836c1.033,0,1.877,0.339,2.531,1.018
			c0.654,0.67,0.98,1.603,0.98,2.798c0,0.961-0.145,1.72-0.436,2.276c-0.291,0.549-0.715,0.978-1.271,1.284
			c-0.549,0.307-1.15,0.46-1.805,0.46c-1.05,0-1.897-0.335-2.543-1.005C276.794,258.493,276.47,257.52,276.47,256.253z
			 M277.779,256.253c0,0.961,0.206,1.684,0.617,2.168c0.42,0.477,0.949,0.714,1.587,0.714c0.63,0,1.154-0.237,1.574-0.714
			c0.42-0.484,0.63-1.22,0.63-2.204c0-0.929-0.21-1.631-0.63-2.107s-0.944-0.715-1.574-0.715c-0.638,0-1.167,0.238-1.587,0.715
			C277.985,254.577,277.779,255.292,277.779,256.253z M286.366,260.007l-2.301-7.496h1.32l1.187,4.323l0.448,1.611
			c0.024-0.081,0.153-0.598,0.388-1.551l1.198-4.384h1.309l1.114,4.348l0.375,1.429l0.437-1.44l1.283-4.336h1.235l-2.35,7.496
			h-1.319l-1.188-4.493l-0.29-1.271l-1.515,5.765H286.366z M295.428,260.007v-7.496h1.139v1.065
			c0.549-0.823,1.344-1.235,2.386-1.235c0.452,0,0.868,0.081,1.247,0.242c0.38,0.162,0.662,0.376,0.848,0.642
			c0.194,0.259,0.327,0.569,0.4,0.933c0.048,0.234,0.072,0.646,0.072,1.235v4.614h-1.271v-4.565c0-0.517-0.053-0.9-0.157-1.15
			c-0.098-0.259-0.271-0.465-0.521-0.618c-0.25-0.153-0.545-0.229-0.884-0.229c-0.541,0-1.009,0.173-1.405,0.521
			c-0.387,0.339-0.581,0.989-0.581,1.95v4.093H295.428z M308.606,257.596l1.308,0.158c-0.21,0.767-0.594,1.364-1.15,1.792
			c-0.558,0.42-1.271,0.63-2.144,0.63c-1.099,0-1.971-0.335-2.616-1.005c-0.638-0.679-0.957-1.627-0.957-2.847
			c0-1.268,0.323-2.248,0.969-2.942c0.654-0.694,1.498-1.042,2.531-1.042c1.001,0,1.817,0.343,2.446,1.029
			c0.639,0.679,0.957,1.635,0.957,2.87c0,0.081,0,0.194,0,0.34h-5.595c0.048,0.823,0.282,1.457,0.702,1.901
			c0.42,0.436,0.94,0.653,1.563,0.653c0.468,0,0.867-0.121,1.198-0.363C308.149,258.521,308.412,258.13,308.606,257.596z
			 M304.427,255.538h4.19c-0.057-0.63-0.218-1.102-0.484-1.417c-0.404-0.492-0.929-0.738-1.574-0.738
			c-0.582,0-1.074,0.197-1.478,0.593C304.686,254.363,304.468,254.884,304.427,255.538z M316.37,260.007v-0.944
			c-0.469,0.743-1.167,1.114-2.096,1.114c-0.598,0-1.146-0.165-1.647-0.496c-0.5-0.331-0.888-0.792-1.162-1.381
			c-0.274-0.59-0.412-1.268-0.412-2.035c0-0.751,0.125-1.429,0.376-2.034c0.25-0.614,0.621-1.082,1.114-1.405
			c0.5-0.323,1.062-0.484,1.683-0.484c0.452,0,0.853,0.097,1.199,0.291c0.355,0.186,0.643,0.432,0.86,0.738v-3.718h1.271v10.354
			H316.37z M312.361,256.264c0,0.961,0.201,1.68,0.605,2.156c0.403,0.477,0.88,0.714,1.429,0.714c0.558,0,1.029-0.226,1.417-0.678
			c0.388-0.46,0.581-1.154,0.581-2.083c0-1.025-0.197-1.776-0.593-2.253c-0.396-0.484-0.885-0.727-1.466-0.727
			c-0.557,0-1.025,0.23-1.404,0.69C312.551,254.545,312.361,255.271,312.361,256.264z M319.883,260.007v-1.453h1.453v1.453
			c0,0.533-0.097,0.961-0.291,1.284c-0.186,0.331-0.484,0.585-0.896,0.763l-0.351-0.545c0.267-0.113,0.464-0.286,0.594-0.521
			c0.129-0.227,0.201-0.553,0.218-0.981H319.883z M332.447,260.007v-0.944c-0.469,0.743-1.167,1.114-2.096,1.114
			c-0.597,0-1.146-0.165-1.646-0.496c-0.501-0.331-0.889-0.792-1.163-1.381c-0.274-0.59-0.411-1.268-0.411-2.035
			c0-0.751,0.125-1.429,0.375-2.034c0.25-0.614,0.622-1.082,1.114-1.405c0.501-0.323,1.062-0.484,1.684-0.484
			c0.452,0,0.852,0.097,1.199,0.291c0.354,0.186,0.642,0.432,0.859,0.738v-3.718h1.271v10.354H332.447z M328.438,256.264
			c0,0.961,0.202,1.68,0.605,2.156s0.88,0.714,1.429,0.714c0.558,0,1.03-0.226,1.417-0.678c0.388-0.46,0.582-1.154,0.582-2.083
			c0-1.025-0.198-1.776-0.594-2.253c-0.396-0.484-0.884-0.727-1.466-0.727c-0.557,0-1.025,0.23-1.404,0.69
			C328.628,254.545,328.438,255.271,328.438,256.264z M335.633,251.118v-1.466h1.271v1.466H335.633z M335.633,260.007v-7.496h1.271
			v7.496H335.633z M338.337,257.766l1.26-0.193c0.064,0.5,0.258,0.888,0.581,1.162c0.323,0.267,0.775,0.399,1.356,0.399
			s1.014-0.116,1.296-0.351c0.282-0.242,0.424-0.525,0.424-0.848c0-0.283-0.125-0.509-0.375-0.679
			c-0.17-0.113-0.602-0.254-1.296-0.424c-0.937-0.242-1.587-0.448-1.95-0.617c-0.355-0.17-0.626-0.404-0.812-0.703
			c-0.186-0.307-0.278-0.646-0.278-1.017c0-0.331,0.076-0.639,0.229-0.921c0.154-0.291,0.364-0.528,0.63-0.715
			c0.194-0.145,0.461-0.266,0.8-0.363c0.347-0.104,0.715-0.157,1.102-0.157c0.59,0,1.106,0.085,1.551,0.255
			c0.444,0.169,0.771,0.399,0.98,0.689c0.219,0.291,0.368,0.679,0.448,1.163l-1.247,0.17c-0.057-0.388-0.222-0.69-0.497-0.909
			c-0.266-0.218-0.646-0.326-1.138-0.326c-0.59,0-1.01,0.097-1.26,0.29c-0.242,0.194-0.363,0.42-0.363,0.679
			c0,0.161,0.048,0.311,0.146,0.448c0.104,0.137,0.271,0.25,0.496,0.339c0.121,0.049,0.492,0.157,1.114,0.327
			c0.904,0.234,1.534,0.428,1.89,0.581s0.634,0.375,0.835,0.666c0.202,0.291,0.303,0.654,0.303,1.09
			c0,0.428-0.125,0.828-0.375,1.199c-0.242,0.371-0.598,0.662-1.065,0.872c-0.469,0.202-0.997,0.303-1.587,0.303
			c-0.969,0-1.712-0.202-2.229-0.605C338.797,259.168,338.474,258.566,338.337,257.766z M348.849,258.869l0.182,1.126
			c-0.355,0.072-0.675,0.109-0.957,0.109c-0.46,0-0.819-0.073-1.078-0.219c-0.25-0.145-0.428-0.335-0.532-0.569
			c-0.105-0.242-0.158-0.742-0.158-1.501v-4.324h-0.933v-0.98h0.933v-1.854l1.26-0.763v2.616h1.284v0.98h-1.284v4.396
			c0,0.355,0.021,0.585,0.061,0.69c0.049,0.104,0.121,0.189,0.218,0.254c0.105,0.057,0.255,0.085,0.448,0.085
			C348.429,258.917,348.615,258.901,348.849,258.869z M350.081,260.007v-7.496h1.139v1.138c0.291-0.532,0.558-0.884,0.8-1.053
			c0.25-0.17,0.524-0.255,0.823-0.255c0.428,0,0.864,0.138,1.308,0.412l-0.436,1.175c-0.315-0.186-0.626-0.279-0.933-0.279
			c-0.282,0-0.533,0.085-0.751,0.255s-0.375,0.399-0.473,0.69c-0.145,0.452-0.218,0.948-0.218,1.489v3.924H350.081z
			 M354.909,251.118v-1.466h1.271v1.466H354.909z M354.909,260.007v-7.496h1.271v7.496H354.909z M359.284,260.007h-1.175v-10.354
			h1.271v3.693c0.541-0.67,1.228-1.005,2.06-1.005c0.46,0,0.896,0.093,1.308,0.278c0.412,0.187,0.751,0.448,1.018,0.787
			c0.267,0.331,0.472,0.735,0.617,1.212c0.153,0.476,0.23,0.984,0.23,1.525c0,1.284-0.319,2.277-0.957,2.979
			c-0.63,0.702-1.393,1.054-2.289,1.054c-0.88,0-1.574-0.371-2.083-1.114V260.007z M359.272,256.204c0,0.896,0.125,1.547,0.375,1.95
			c0.396,0.654,0.937,0.98,1.623,0.98c0.557,0,1.037-0.242,1.441-0.727c0.403-0.484,0.605-1.203,0.605-2.155
			c0-0.978-0.194-1.7-0.581-2.168c-0.388-0.469-0.86-0.702-1.417-0.702c-0.55,0-1.03,0.242-1.441,0.727
			C359.473,254.594,359.272,255.292,359.272,256.204z M371.069,260.007v-1.102c-0.582,0.848-1.373,1.271-2.374,1.271
			c-0.444,0-0.86-0.085-1.248-0.254c-0.379-0.17-0.662-0.384-0.848-0.643c-0.186-0.258-0.314-0.573-0.388-0.944
			c-0.056-0.242-0.084-0.638-0.084-1.187v-4.639h1.271v4.153c0,0.662,0.028,1.11,0.085,1.345c0.08,0.331,0.25,0.594,0.508,0.787
			c0.259,0.194,0.578,0.291,0.957,0.291c0.38,0,0.735-0.097,1.066-0.291c0.339-0.201,0.577-0.468,0.714-0.799
			c0.138-0.34,0.206-0.828,0.206-1.466v-4.021h1.271v7.496H371.069z M376.979,258.869l0.182,1.126
			c-0.355,0.072-0.674,0.109-0.957,0.109c-0.46,0-0.819-0.073-1.077-0.219c-0.251-0.145-0.429-0.335-0.533-0.569
			c-0.105-0.242-0.157-0.742-0.157-1.501v-4.324h-0.933v-0.98h0.933v-1.854l1.26-0.763v2.616h1.283v0.98h-1.283v4.396
			c0,0.355,0.02,0.585,0.061,0.69c0.048,0.104,0.121,0.189,0.218,0.254c0.104,0.057,0.254,0.085,0.448,0.085
			C376.559,258.917,376.745,258.901,376.979,258.869z M383.358,257.596l1.309,0.158c-0.21,0.767-0.594,1.364-1.15,1.792
			c-0.558,0.42-1.272,0.63-2.144,0.63c-1.099,0-1.971-0.335-2.616-1.005c-0.638-0.679-0.957-1.627-0.957-2.847
			c0-1.268,0.323-2.248,0.969-2.942c0.654-0.694,1.498-1.042,2.531-1.042c1.001,0,1.816,0.343,2.446,1.029
			c0.638,0.679,0.957,1.635,0.957,2.87c0,0.081,0,0.194,0,0.34h-5.596c0.049,0.823,0.283,1.457,0.703,1.901
			c0.42,0.436,0.94,0.653,1.563,0.653c0.468,0,0.867-0.121,1.198-0.363C382.902,258.521,383.165,258.13,383.358,257.596z
			 M379.18,255.538h4.19c-0.057-0.63-0.218-1.102-0.484-1.417c-0.404-0.492-0.929-0.738-1.574-0.738
			c-0.582,0-1.074,0.197-1.478,0.593C379.438,254.363,379.22,254.884,379.18,255.538z M391.122,260.007v-0.944
			c-0.468,0.743-1.166,1.114-2.095,1.114c-0.598,0-1.146-0.165-1.647-0.496c-0.5-0.331-0.888-0.792-1.162-1.381
			c-0.274-0.59-0.412-1.268-0.412-2.035c0-0.751,0.125-1.429,0.376-2.034c0.25-0.614,0.621-1.082,1.114-1.405
			c0.5-0.323,1.062-0.484,1.683-0.484c0.452,0,0.853,0.097,1.199,0.291c0.355,0.186,0.642,0.432,0.86,0.738v-3.718h1.271v10.354
			H391.122z M387.114,256.264c0,0.961,0.201,1.68,0.605,2.156c0.403,0.477,0.88,0.714,1.429,0.714c0.557,0,1.029-0.226,1.417-0.678
			c0.388-0.46,0.581-1.154,0.581-2.083c0-1.025-0.197-1.776-0.593-2.253c-0.396-0.484-0.885-0.727-1.466-0.727
			c-0.557,0-1.025,0.23-1.405,0.69C387.303,254.545,387.114,255.271,387.114,256.264z M403.219,259.087
			c-0.477,0.396-0.933,0.678-1.368,0.848c-0.429,0.161-0.893,0.242-1.394,0.242c-0.823,0-1.457-0.202-1.901-0.605
			c-0.443-0.403-0.666-0.916-0.666-1.538c0-0.371,0.085-0.707,0.255-1.005c0.169-0.308,0.388-0.55,0.653-0.728
			c0.274-0.186,0.582-0.326,0.921-0.424c0.242-0.064,0.617-0.129,1.126-0.193c1.025-0.121,1.78-0.267,2.265-0.436
			c0.009-0.178,0.013-0.287,0.013-0.327c0-0.517-0.121-0.885-0.363-1.103c-0.323-0.282-0.808-0.424-1.453-0.424
			c-0.598,0-1.038,0.105-1.32,0.314c-0.283,0.21-0.493,0.578-0.63,1.103l-1.248-0.17c0.113-0.524,0.299-0.948,0.558-1.271
			c0.259-0.331,0.634-0.585,1.126-0.763c0.493-0.178,1.058-0.267,1.696-0.267c0.646,0,1.166,0.077,1.562,0.23
			c0.404,0.146,0.699,0.335,0.885,0.569c0.193,0.226,0.327,0.513,0.399,0.859c0.04,0.218,0.061,0.609,0.061,1.175v1.695
			c0,1.179,0.028,1.926,0.085,2.241c0.057,0.307,0.161,0.605,0.314,0.896h-1.32C403.336,259.741,403.251,259.433,403.219,259.087z
			 M403.109,256.24c-0.46,0.194-1.15,0.355-2.07,0.485c-0.525,0.072-0.896,0.157-1.114,0.254c-0.219,0.097-0.388,0.234-0.509,0.412
			c-0.113,0.177-0.17,0.379-0.17,0.605c0,0.339,0.13,0.621,0.388,0.848c0.259,0.226,0.634,0.339,1.126,0.339
			c0.485,0,0.917-0.104,1.296-0.314c0.388-0.219,0.671-0.513,0.849-0.885c0.137-0.29,0.205-0.714,0.205-1.271V256.24z
			 M411.26,257.258l1.248,0.17c-0.138,0.855-0.489,1.53-1.054,2.022c-0.558,0.484-1.248,0.727-2.071,0.727
			c-1.025,0-1.849-0.335-2.471-1.005c-0.622-0.671-0.933-1.631-0.933-2.883c0-0.815,0.134-1.526,0.399-2.132
			c0.267-0.605,0.675-1.058,1.224-1.356c0.549-0.307,1.146-0.46,1.792-0.46c0.815,0,1.482,0.206,1.999,0.618
			c0.517,0.411,0.848,0.997,0.993,1.756l-1.235,0.182c-0.121-0.501-0.331-0.876-0.63-1.126c-0.299-0.259-0.658-0.388-1.078-0.388
			c-0.638,0-1.158,0.229-1.563,0.69c-0.403,0.46-0.605,1.187-0.605,2.18c0,1.009,0.194,1.744,0.581,2.204
			c0.388,0.452,0.893,0.678,1.515,0.678c0.5,0,0.916-0.153,1.247-0.46C410.958,258.368,411.172,257.895,411.26,257.258z
			 M413.586,260.007v-7.496h1.139v1.138c0.291-0.532,0.558-0.884,0.8-1.053c0.25-0.17,0.524-0.255,0.823-0.255
			c0.428,0,0.864,0.138,1.308,0.412l-0.436,1.175c-0.315-0.186-0.626-0.279-0.933-0.279c-0.282,0-0.533,0.085-0.751,0.255
			s-0.375,0.399-0.473,0.69c-0.145,0.452-0.218,0.948-0.218,1.489v3.924H413.586z M417.941,256.253c0-1.389,0.384-2.414,1.15-3.076
			c0.646-0.558,1.434-0.836,2.362-0.836c1.033,0,1.877,0.339,2.531,1.018c0.653,0.67,0.98,1.603,0.98,2.798
			c0,0.961-0.145,1.72-0.436,2.276c-0.291,0.549-0.715,0.978-1.271,1.284c-0.549,0.307-1.15,0.46-1.805,0.46
			c-1.05,0-1.897-0.335-2.544-1.005C418.264,258.493,417.941,257.52,417.941,256.253z M419.25,256.253
			c0,0.961,0.205,1.684,0.617,2.168c0.42,0.477,0.948,0.714,1.587,0.714c0.63,0,1.154-0.237,1.574-0.714
			c0.42-0.484,0.63-1.22,0.63-2.204c0-0.929-0.21-1.631-0.63-2.107s-0.944-0.715-1.574-0.715c-0.639,0-1.167,0.238-1.587,0.715
			C419.455,254.577,419.25,255.292,419.25,256.253z M425.947,257.766l1.26-0.193c0.064,0.5,0.259,0.888,0.582,1.162
			c0.322,0.267,0.774,0.399,1.355,0.399c0.582,0,1.014-0.116,1.297-0.351c0.282-0.242,0.424-0.525,0.424-0.848
			c0-0.283-0.126-0.509-0.376-0.679c-0.17-0.113-0.602-0.254-1.296-0.424c-0.937-0.242-1.586-0.448-1.95-0.617
			c-0.354-0.17-0.625-0.404-0.811-0.703c-0.187-0.307-0.279-0.646-0.279-1.017c0-0.331,0.077-0.639,0.23-0.921
			c0.153-0.291,0.363-0.528,0.63-0.715c0.193-0.145,0.46-0.266,0.799-0.363c0.348-0.104,0.715-0.157,1.103-0.157
			c0.589,0,1.106,0.085,1.55,0.255c0.444,0.169,0.771,0.399,0.981,0.689c0.218,0.291,0.367,0.679,0.448,1.163l-1.248,0.17
			c-0.057-0.388-0.222-0.69-0.496-0.909c-0.267-0.218-0.646-0.326-1.139-0.326c-0.589,0-1.009,0.097-1.26,0.29
			c-0.242,0.194-0.363,0.42-0.363,0.679c0,0.161,0.049,0.311,0.146,0.448c0.105,0.137,0.271,0.25,0.497,0.339
			c0.121,0.049,0.492,0.157,1.113,0.327c0.905,0.234,1.534,0.428,1.89,0.581s0.634,0.375,0.836,0.666s0.303,0.654,0.303,1.09
			c0,0.428-0.125,0.828-0.376,1.199c-0.242,0.371-0.597,0.662-1.065,0.872c-0.468,0.202-0.997,0.303-1.587,0.303
			c-0.969,0-1.711-0.202-2.228-0.605C426.408,259.168,426.085,258.566,425.947,257.766z M433.177,257.766l1.26-0.193
			c0.064,0.5,0.259,0.888,0.581,1.162c0.323,0.267,0.775,0.399,1.356,0.399c0.582,0,1.014-0.116,1.296-0.351
			c0.283-0.242,0.424-0.525,0.424-0.848c0-0.283-0.125-0.509-0.375-0.679c-0.17-0.113-0.602-0.254-1.296-0.424
			c-0.937-0.242-1.587-0.448-1.95-0.617c-0.355-0.17-0.626-0.404-0.812-0.703c-0.186-0.307-0.278-0.646-0.278-1.017
			c0-0.331,0.077-0.639,0.23-0.921c0.153-0.291,0.363-0.528,0.63-0.715c0.193-0.145,0.46-0.266,0.799-0.363
			c0.348-0.104,0.715-0.157,1.103-0.157c0.589,0,1.105,0.085,1.55,0.255c0.444,0.169,0.771,0.399,0.981,0.689
			c0.218,0.291,0.367,0.679,0.448,1.163l-1.248,0.17c-0.057-0.388-0.222-0.69-0.496-0.909c-0.267-0.218-0.646-0.326-1.139-0.326
			c-0.59,0-1.01,0.097-1.26,0.29c-0.242,0.194-0.363,0.42-0.363,0.679c0,0.161,0.049,0.311,0.146,0.448
			c0.104,0.137,0.271,0.25,0.496,0.339c0.121,0.049,0.493,0.157,1.114,0.327c0.904,0.234,1.534,0.428,1.89,0.581
			s0.634,0.375,0.836,0.666c0.201,0.291,0.303,0.654,0.303,1.09c0,0.428-0.125,0.828-0.376,1.199
			c-0.242,0.371-0.598,0.662-1.065,0.872c-0.469,0.202-0.997,0.303-1.587,0.303c-0.969,0-1.711-0.202-2.229-0.605
			C433.638,259.168,433.315,258.566,433.177,257.766z M444.923,260.007v-7.496h1.138v1.138c0.291-0.532,0.558-0.884,0.8-1.053
			c0.25-0.17,0.524-0.255,0.823-0.255c0.428,0,0.864,0.138,1.309,0.412l-0.437,1.175c-0.314-0.186-0.626-0.279-0.933-0.279
			c-0.282,0-0.533,0.085-0.751,0.255s-0.375,0.399-0.472,0.69c-0.146,0.452-0.219,0.948-0.219,1.489v3.924H444.923z
			 M454.885,257.596l1.309,0.158c-0.21,0.767-0.594,1.364-1.15,1.792c-0.558,0.42-1.272,0.63-2.145,0.63
			c-1.098,0-1.97-0.335-2.615-1.005c-0.638-0.679-0.957-1.627-0.957-2.847c0-1.268,0.323-2.248,0.969-2.942
			c0.654-0.694,1.498-1.042,2.531-1.042c1.001,0,1.816,0.343,2.446,1.029c0.638,0.679,0.957,1.635,0.957,2.87
			c0,0.081,0,0.194,0,0.34h-5.596c0.049,0.823,0.283,1.457,0.703,1.901c0.42,0.436,0.94,0.653,1.562,0.653
			c0.469,0,0.868-0.121,1.199-0.363C454.428,258.521,454.691,258.13,454.885,257.596z M450.707,255.538h4.19
			c-0.057-0.63-0.218-1.102-0.484-1.417c-0.404-0.492-0.929-0.738-1.575-0.738c-0.581,0-1.073,0.197-1.478,0.593
			C450.965,254.363,450.747,254.884,450.707,255.538z M457.283,257.766l1.26-0.193c0.064,0.5,0.259,0.888,0.581,1.162
			c0.323,0.267,0.775,0.399,1.356,0.399c0.582,0,1.014-0.116,1.296-0.351c0.283-0.242,0.424-0.525,0.424-0.848
			c0-0.283-0.125-0.509-0.375-0.679c-0.17-0.113-0.602-0.254-1.296-0.424c-0.937-0.242-1.587-0.448-1.95-0.617
			c-0.354-0.17-0.625-0.404-0.812-0.703c-0.186-0.307-0.278-0.646-0.278-1.017c0-0.331,0.077-0.639,0.23-0.921
			c0.153-0.291,0.363-0.528,0.63-0.715c0.193-0.145,0.46-0.266,0.799-0.363c0.348-0.104,0.715-0.157,1.103-0.157
			c0.589,0,1.105,0.085,1.55,0.255c0.444,0.169,0.771,0.399,0.981,0.689c0.218,0.291,0.367,0.679,0.448,1.163l-1.248,0.17
			c-0.057-0.388-0.222-0.69-0.496-0.909c-0.267-0.218-0.646-0.326-1.139-0.326c-0.59,0-1.01,0.097-1.26,0.29
			c-0.242,0.194-0.363,0.42-0.363,0.679c0,0.161,0.049,0.311,0.146,0.448c0.104,0.137,0.271,0.25,0.496,0.339
			c0.122,0.049,0.493,0.157,1.114,0.327c0.904,0.234,1.534,0.428,1.89,0.581s0.634,0.375,0.836,0.666
			c0.201,0.291,0.303,0.654,0.303,1.09c0,0.428-0.125,0.828-0.376,1.199c-0.242,0.371-0.597,0.662-1.065,0.872
			c-0.468,0.202-0.997,0.303-1.587,0.303c-0.969,0-1.711-0.202-2.228-0.605C457.744,259.168,457.421,258.566,457.283,257.766z
			 M470.157,257.596l1.309,0.158c-0.21,0.767-0.594,1.364-1.15,1.792c-0.558,0.42-1.272,0.63-2.144,0.63
			c-1.099,0-1.971-0.335-2.616-1.005c-0.638-0.679-0.957-1.627-0.957-2.847c0-1.268,0.323-2.248,0.969-2.942
			c0.654-0.694,1.498-1.042,2.531-1.042c1.001,0,1.816,0.343,2.446,1.029c0.638,0.679,0.957,1.635,0.957,2.87
			c0,0.081,0,0.194,0,0.34h-5.596c0.049,0.823,0.283,1.457,0.703,1.901c0.42,0.436,0.94,0.653,1.563,0.653
			c0.468,0,0.867-0.121,1.198-0.363C469.701,258.521,469.964,258.13,470.157,257.596z M465.979,255.538h4.19
			c-0.057-0.63-0.218-1.102-0.484-1.417c-0.404-0.492-0.929-0.738-1.574-0.738c-0.582,0-1.074,0.197-1.479,0.593
			C466.237,254.363,466.019,254.884,465.979,255.538z M477.958,259.087c-0.477,0.396-0.933,0.678-1.369,0.848
			c-0.428,0.161-0.892,0.242-1.393,0.242c-0.823,0-1.457-0.202-1.901-0.605s-0.666-0.916-0.666-1.538
			c0-0.371,0.085-0.707,0.254-1.005c0.17-0.308,0.388-0.55,0.654-0.728c0.274-0.186,0.581-0.326,0.921-0.424
			c0.242-0.064,0.617-0.129,1.126-0.193c1.025-0.121,1.78-0.267,2.265-0.436c0.008-0.178,0.012-0.287,0.012-0.327
			c0-0.517-0.121-0.885-0.363-1.103c-0.322-0.282-0.807-0.424-1.453-0.424c-0.598,0-1.037,0.105-1.32,0.314
			c-0.282,0.21-0.492,0.578-0.63,1.103l-1.247-0.17c0.113-0.524,0.299-0.948,0.558-1.271c0.258-0.331,0.634-0.585,1.126-0.763
			s1.058-0.267,1.695-0.267c0.646,0,1.167,0.077,1.563,0.23c0.403,0.146,0.698,0.335,0.884,0.569c0.194,0.226,0.327,0.513,0.4,0.859
			c0.04,0.218,0.061,0.609,0.061,1.175v1.695c0,1.179,0.027,1.926,0.084,2.241c0.057,0.307,0.162,0.605,0.315,0.896h-1.32
			C478.074,259.741,477.99,259.433,477.958,259.087z M477.848,256.24c-0.46,0.194-1.15,0.355-2.071,0.485
			c-0.524,0.072-0.896,0.157-1.114,0.254c-0.218,0.097-0.387,0.234-0.509,0.412c-0.112,0.177-0.169,0.379-0.169,0.605
			c0,0.339,0.129,0.621,0.388,0.848c0.258,0.226,0.634,0.339,1.126,0.339c0.484,0,0.916-0.104,1.296-0.314
			c0.388-0.219,0.67-0.513,0.848-0.885c0.138-0.29,0.206-0.714,0.206-1.271V256.24z M481.094,260.007v-7.496h1.139v1.138
			c0.291-0.532,0.557-0.884,0.8-1.053c0.25-0.17,0.524-0.255,0.823-0.255c0.428,0,0.863,0.138,1.308,0.412l-0.436,1.175
			c-0.315-0.186-0.626-0.279-0.933-0.279c-0.283,0-0.533,0.085-0.751,0.255s-0.376,0.399-0.473,0.69
			c-0.146,0.452-0.218,0.948-0.218,1.489v3.924H481.094z M490.815,257.258l1.247,0.17c-0.137,0.855-0.488,1.53-1.054,2.022
			c-0.557,0.484-1.247,0.727-2.07,0.727c-1.025,0-1.85-0.335-2.471-1.005c-0.622-0.671-0.933-1.631-0.933-2.883
			c0-0.815,0.133-1.526,0.399-2.132s0.675-1.058,1.224-1.356c0.549-0.307,1.146-0.46,1.792-0.46c0.815,0,1.481,0.206,1.998,0.618
			c0.518,0.411,0.849,0.997,0.993,1.756l-1.235,0.182c-0.121-0.501-0.331-0.876-0.63-1.126c-0.298-0.259-0.657-0.388-1.077-0.388
			c-0.638,0-1.159,0.229-1.563,0.69c-0.403,0.46-0.605,1.187-0.605,2.18c0,1.009,0.193,1.744,0.581,2.204
			c0.388,0.452,0.893,0.678,1.514,0.678c0.501,0,0.917-0.153,1.248-0.46C490.512,258.368,490.726,257.895,490.815,257.258z
			 M493.152,260.007v-10.354h1.272v3.718c0.589-0.687,1.336-1.029,2.24-1.029c0.557,0,1.037,0.109,1.441,0.327
			c0.411,0.218,0.706,0.521,0.884,0.908s0.267,0.949,0.267,1.684v4.747h-1.271v-4.747c0-0.638-0.138-1.103-0.412-1.393
			c-0.274-0.291-0.666-0.437-1.175-0.437c-0.371,0-0.723,0.102-1.054,0.303c-0.331,0.194-0.569,0.456-0.714,0.787
			c-0.138,0.331-0.206,0.792-0.206,1.381v4.105H493.152z M505.213,251.118v-1.466h1.271v1.466H505.213z M505.213,260.007v-7.496
			h1.271v7.496H505.213z M508.426,260.007v-7.496h1.138v1.065c0.55-0.823,1.345-1.235,2.386-1.235c0.452,0,0.868,0.081,1.248,0.242
			c0.379,0.162,0.662,0.376,0.848,0.642c0.193,0.259,0.327,0.569,0.399,0.933c0.049,0.234,0.073,0.646,0.073,1.235v4.614h-1.272
			v-4.565c0-0.517-0.052-0.9-0.157-1.15c-0.097-0.259-0.271-0.465-0.521-0.618s-0.545-0.229-0.884-0.229
			c-0.541,0-1.01,0.173-1.405,0.521c-0.388,0.339-0.581,0.989-0.581,1.95v4.093H508.426z M515.959,257.766l1.26-0.193
			c0.064,0.5,0.258,0.888,0.581,1.162c0.323,0.267,0.775,0.399,1.356,0.399s1.014-0.116,1.296-0.351
			c0.282-0.242,0.424-0.525,0.424-0.848c0-0.283-0.125-0.509-0.375-0.679c-0.17-0.113-0.602-0.254-1.296-0.424
			c-0.938-0.242-1.587-0.448-1.95-0.617c-0.355-0.17-0.626-0.404-0.812-0.703c-0.186-0.307-0.278-0.646-0.278-1.017
			c0-0.331,0.076-0.639,0.229-0.921c0.154-0.291,0.363-0.528,0.63-0.715c0.194-0.145,0.461-0.266,0.8-0.363
			c0.347-0.104,0.715-0.157,1.102-0.157c0.59,0,1.106,0.085,1.551,0.255c0.443,0.169,0.771,0.399,0.98,0.689
			c0.219,0.291,0.367,0.679,0.448,1.163l-1.247,0.17c-0.057-0.388-0.223-0.69-0.497-0.909c-0.267-0.218-0.646-0.326-1.138-0.326
			c-0.59,0-1.01,0.097-1.26,0.29c-0.242,0.194-0.363,0.42-0.363,0.679c0,0.161,0.048,0.311,0.146,0.448
			c0.104,0.137,0.271,0.25,0.496,0.339c0.121,0.049,0.492,0.157,1.114,0.327c0.904,0.234,1.534,0.428,1.89,0.581
			c0.354,0.153,0.634,0.375,0.835,0.666c0.202,0.291,0.303,0.654,0.303,1.09c0,0.428-0.125,0.828-0.375,1.199
			c-0.242,0.371-0.598,0.662-1.065,0.872c-0.469,0.202-0.997,0.303-1.587,0.303c-0.969,0-1.712-0.202-2.229-0.605
			C516.419,259.168,516.095,258.566,515.959,257.766z M526.471,258.869l0.182,1.126c-0.355,0.072-0.675,0.109-0.957,0.109
			c-0.46,0-0.819-0.073-1.078-0.219c-0.25-0.145-0.428-0.335-0.532-0.569c-0.105-0.242-0.158-0.742-0.158-1.501v-4.324h-0.933v-0.98
			h0.933v-1.854l1.26-0.763v2.616h1.284v0.98h-1.284v4.396c0,0.355,0.021,0.585,0.061,0.69c0.049,0.104,0.121,0.189,0.218,0.254
			c0.105,0.057,0.255,0.085,0.448,0.085C526.052,258.917,526.237,258.901,526.471,258.869z M527.716,251.118v-1.466h1.271v1.466
			H527.716z M527.716,260.007v-7.496h1.271v7.496H527.716z M533.701,258.869l0.182,1.126c-0.354,0.072-0.674,0.109-0.956,0.109
			c-0.46,0-0.819-0.073-1.078-0.219c-0.25-0.145-0.428-0.335-0.533-0.569c-0.104-0.242-0.157-0.742-0.157-1.501v-4.324h-0.933v-0.98
			h0.933v-1.854l1.26-0.763v2.616h1.283v0.98h-1.283v4.396c0,0.355,0.02,0.585,0.061,0.69c0.049,0.104,0.121,0.189,0.218,0.254
			c0.104,0.057,0.255,0.085,0.448,0.085C533.281,258.917,533.468,258.901,533.701,258.869z M539.85,260.007v-1.102
			c-0.581,0.848-1.372,1.271-2.374,1.271c-0.443,0-0.859-0.085-1.247-0.254c-0.38-0.17-0.662-0.384-0.848-0.643
			c-0.186-0.258-0.315-0.573-0.388-0.944c-0.057-0.242-0.085-0.638-0.085-1.187v-4.639h1.272v4.153c0,0.662,0.027,1.11,0.084,1.345
			c0.081,0.331,0.251,0.594,0.509,0.787c0.259,0.194,0.577,0.291,0.957,0.291c0.379,0,0.734-0.097,1.065-0.291
			c0.34-0.201,0.577-0.468,0.715-0.799c0.137-0.34,0.206-0.828,0.206-1.466v-4.021h1.271v7.496H539.85z M545.761,258.869
			l0.182,1.126c-0.355,0.072-0.675,0.109-0.957,0.109c-0.46,0-0.819-0.073-1.078-0.219c-0.25-0.145-0.428-0.335-0.532-0.569
			c-0.105-0.242-0.158-0.742-0.158-1.501v-4.324h-0.933v-0.98h0.933v-1.854l1.26-0.763v2.616h1.284v0.98h-1.284v4.396
			c0,0.355,0.021,0.585,0.061,0.69c0.049,0.104,0.121,0.189,0.218,0.254c0.105,0.057,0.255,0.085,0.448,0.085
			C545.342,258.917,545.527,258.901,545.761,258.869z M547.006,251.118v-1.466h1.271v1.466H547.006z M547.006,260.007v-7.496h1.271
			v7.496H547.006z M549.746,256.253c0-1.389,0.384-2.414,1.15-3.076c0.646-0.558,1.434-0.836,2.361-0.836
			c1.034,0,1.878,0.339,2.531,1.018c0.654,0.67,0.981,1.603,0.981,2.798c0,0.961-0.146,1.72-0.437,2.276
			c-0.29,0.549-0.714,0.978-1.271,1.284c-0.549,0.307-1.15,0.46-1.805,0.46c-1.049,0-1.896-0.335-2.543-1.005
			C550.069,258.493,549.746,257.52,549.746,256.253z M551.053,256.253c0,0.961,0.206,1.684,0.618,2.168
			c0.42,0.477,0.948,0.714,1.586,0.714c0.63,0,1.155-0.237,1.575-0.714c0.419-0.484,0.63-1.22,0.63-2.204
			c0-0.929-0.211-1.631-0.63-2.107c-0.42-0.477-0.945-0.715-1.575-0.715c-0.638,0-1.166,0.238-1.586,0.715
			C551.26,254.577,551.053,255.292,551.053,256.253z M558.26,260.007v-7.496h1.139v1.065c0.549-0.823,1.344-1.235,2.386-1.235
			c0.452,0,0.867,0.081,1.247,0.242c0.38,0.162,0.662,0.376,0.848,0.642c0.194,0.259,0.327,0.569,0.399,0.933
			c0.049,0.234,0.073,0.646,0.073,1.235v4.614h-1.271v-4.565c0-0.517-0.053-0.9-0.157-1.15c-0.098-0.259-0.271-0.465-0.521-0.618
			s-0.545-0.229-0.884-0.229c-0.541,0-1.01,0.173-1.405,0.521c-0.387,0.339-0.581,0.989-0.581,1.95v4.093H558.26z M565.794,257.766
			l1.26-0.193c0.064,0.5,0.259,0.888,0.581,1.162c0.323,0.267,0.775,0.399,1.356,0.399c0.582,0,1.014-0.116,1.296-0.351
			c0.283-0.242,0.424-0.525,0.424-0.848c0-0.283-0.125-0.509-0.375-0.679c-0.17-0.113-0.602-0.254-1.296-0.424
			c-0.937-0.242-1.587-0.448-1.95-0.617c-0.355-0.17-0.625-0.404-0.812-0.703c-0.186-0.307-0.278-0.646-0.278-1.017
			c0-0.331,0.077-0.639,0.23-0.921c0.153-0.291,0.363-0.528,0.63-0.715c0.193-0.145,0.46-0.266,0.799-0.363
			c0.348-0.104,0.715-0.157,1.103-0.157c0.589,0,1.105,0.085,1.55,0.255c0.444,0.169,0.771,0.399,0.981,0.689
			c0.218,0.291,0.367,0.679,0.447,1.163l-1.247,0.17c-0.057-0.388-0.222-0.69-0.496-0.909c-0.267-0.218-0.646-0.326-1.139-0.326
			c-0.59,0-1.01,0.097-1.26,0.29c-0.242,0.194-0.363,0.42-0.363,0.679c0,0.161,0.049,0.311,0.146,0.448
			c0.104,0.137,0.271,0.25,0.496,0.339c0.121,0.049,0.493,0.157,1.114,0.327c0.904,0.234,1.534,0.428,1.89,0.581
			s0.634,0.375,0.836,0.666c0.201,0.291,0.303,0.654,0.303,1.09c0,0.428-0.125,0.828-0.376,1.199
			c-0.242,0.371-0.597,0.662-1.065,0.872c-0.469,0.202-0.997,0.303-1.587,0.303c-0.969,0-1.711-0.202-2.229-0.605
			C566.255,259.168,565.931,258.566,565.794,257.766z M573.885,260.007v-1.453h1.453v1.453H573.885z"/>
		<path fill="#FFF2CC" d="M130.307,104.365L130.307,104.365c0-4.231,3.43-7.662,7.661-7.662h79.008c2.032,0,3.98,0.808,5.418,2.244
			c1.437,1.437,2.243,3.386,2.243,5.418v30.646c0,4.231-3.43,7.662-7.661,7.662h-79.008c-4.231,0-7.661-3.431-7.661-7.662V104.365z"
			/>
		<path fill="none" stroke="#000000" stroke-linejoin="round" stroke-miterlimit="10" d="M130.307,104.365L130.307,104.365
			c0-4.231,3.43-7.662,7.661-7.662h79.008c2.032,0,3.98,0.808,5.418,2.244c1.437,1.437,2.243,3.386,2.243,5.418v30.646
			c0,4.231-3.43,7.662-7.661,7.662h-79.008c-4.231,0-7.661-3.431-7.661-7.662V104.365z"/>
		<path d="M158.026,125.052l-2.737-10.355h1.405l1.574,6.795c0.17,0.71,0.315,1.413,0.437,2.107c0.258-1.106,0.411-1.744,0.46-1.914
			l1.974-6.988h1.647l1.489,5.244c0.372,1.3,0.638,2.52,0.8,3.658c0.137-0.654,0.311-1.401,0.521-2.241l1.623-6.661h1.381
			l-2.847,10.355h-1.319l-2.181-7.885c-0.186-0.662-0.295-1.065-0.327-1.211c-0.104,0.469-0.205,0.872-0.303,1.211l-2.191,7.885
			H158.026z M169.439,125.052v-7.497h1.139v1.139c0.29-0.533,0.557-0.884,0.799-1.054c0.251-0.17,0.525-0.255,0.824-0.255
			c0.428,0,0.863,0.138,1.308,0.412l-0.436,1.175c-0.315-0.186-0.626-0.278-0.933-0.278c-0.283,0-0.533,0.085-0.751,0.254
			c-0.219,0.17-0.376,0.4-0.473,0.69c-0.146,0.452-0.218,0.949-0.218,1.49v3.924H169.439z M174.267,116.162v-1.466h1.271v1.466
			H174.267z M174.267,125.052v-7.497h1.271v7.497H174.267z M180.253,123.913l0.182,1.126c-0.354,0.073-0.674,0.109-0.956,0.109
			c-0.461,0-0.82-0.072-1.078-0.218c-0.25-0.146-0.428-0.335-0.533-0.569c-0.104-0.242-0.157-0.743-0.157-1.502v-4.323h-0.933
			v-0.981h0.933v-1.853l1.26-0.764v2.616h1.283v0.981h-1.283v4.396c0,0.355,0.02,0.586,0.061,0.69
			c0.048,0.105,0.121,0.19,0.218,0.255c0.104,0.057,0.254,0.085,0.448,0.085C179.833,123.962,180.018,123.945,180.253,123.913z
			 M181.497,116.162v-1.466h1.271v1.466H181.497z M181.497,125.052v-7.497h1.271v7.497H181.497z M184.71,125.052v-7.497h1.139v1.065
			c0.549-0.823,1.344-1.235,2.386-1.235c0.452,0,0.868,0.081,1.247,0.243c0.38,0.161,0.662,0.375,0.848,0.642
			c0.194,0.258,0.327,0.569,0.4,0.933c0.048,0.234,0.072,0.646,0.072,1.235v4.614h-1.271v-4.566c0-0.517-0.053-0.9-0.157-1.15
			c-0.097-0.258-0.271-0.464-0.521-0.617c-0.25-0.153-0.545-0.23-0.884-0.23c-0.541,0-1.009,0.174-1.404,0.521
			c-0.388,0.34-0.582,0.989-0.582,1.95v4.094H184.71z M192.51,125.669l1.235,0.182c0.057,0.388,0.202,0.666,0.437,0.836
			c0.314,0.234,0.747,0.352,1.296,0.352c0.589,0,1.041-0.117,1.356-0.352c0.322-0.234,0.541-0.562,0.653-0.981
			c0.065-0.258,0.093-0.803,0.085-1.635c-0.549,0.654-1.239,0.981-2.07,0.981c-1.034,0-1.833-0.372-2.398-1.114
			c-0.565-0.743-0.848-1.635-0.848-2.677c0-0.719,0.129-1.381,0.388-1.986c0.267-0.605,0.642-1.069,1.126-1.393
			c0.492-0.331,1.074-0.497,1.744-0.497c0.88,0,1.606,0.355,2.18,1.066v-0.896h1.175v6.479c0,1.171-0.121,1.998-0.363,2.482
			c-0.234,0.484-0.609,0.868-1.126,1.151c-0.509,0.282-1.143,0.424-1.901,0.424c-0.889,0-1.611-0.202-2.168-0.606
			C192.76,127.09,192.494,126.484,192.51,125.669z M193.563,121.164c0,0.984,0.194,1.703,0.582,2.155
			c0.396,0.452,0.888,0.679,1.478,0.679c0.581,0,1.069-0.223,1.465-0.666c0.396-0.452,0.594-1.159,0.594-2.12
			c0-0.92-0.206-1.61-0.618-2.07c-0.403-0.469-0.892-0.703-1.465-0.703c-0.565,0-1.046,0.23-1.441,0.69
			C193.761,119.581,193.563,120.26,193.563,121.164z"/>
		<path fill="#FFF2CC" d="M248.132,104.365L248.132,104.365c0-4.231,3.43-7.662,7.661-7.662h79.008c2.031,0,3.98,0.808,5.417,2.244
			c1.438,1.437,2.244,3.386,2.244,5.418v30.646c0,4.231-3.43,7.662-7.661,7.662h-79.008c-4.231,0-7.661-3.431-7.661-7.662V104.365z"
			/>
		<path fill="none" stroke="#000000" stroke-linejoin="round" stroke-miterlimit="10" d="M248.132,104.365L248.132,104.365
			c0-4.231,3.43-7.662,7.661-7.662h79.008c2.031,0,3.98,0.808,5.417,2.244c1.438,1.437,2.244,3.386,2.244,5.418v30.646
			c0,4.231-3.43,7.662-7.661,7.662h-79.008c-4.231,0-7.661-3.431-7.661-7.662V104.365z"/>
		<path d="M269.502,125.052v-10.355h4.59c0.921,0,1.619,0.093,2.096,0.279c0.484,0.186,0.867,0.517,1.15,0.993
			c0.29,0.468,0.436,0.988,0.436,1.562c0,0.727-0.238,1.345-0.715,1.854c-0.476,0.5-1.211,0.819-2.204,0.957
			c0.363,0.177,0.643,0.351,0.836,0.521c0.396,0.363,0.771,0.819,1.126,1.368l1.805,2.822h-1.72l-1.368-2.156
			c-0.404-0.621-0.735-1.094-0.993-1.417c-0.259-0.331-0.492-0.561-0.702-0.69c-0.202-0.137-0.408-0.229-0.618-0.278
			c-0.153-0.04-0.407-0.061-0.763-0.061h-1.587v4.603H269.502z M270.87,119.274h2.943c0.63,0,1.118-0.064,1.465-0.193
			c0.355-0.138,0.626-0.348,0.812-0.63c0.186-0.283,0.279-0.59,0.279-0.921c0-0.492-0.178-0.896-0.533-1.211
			c-0.355-0.314-0.921-0.473-1.695-0.473h-3.271V119.274z M284.898,122.641l1.308,0.157c-0.21,0.767-0.594,1.364-1.15,1.792
			c-0.558,0.42-1.271,0.63-2.144,0.63c-1.099,0-1.971-0.335-2.616-1.005c-0.638-0.678-0.957-1.627-0.957-2.846
			c0-1.268,0.323-2.249,0.969-2.943c0.654-0.694,1.498-1.042,2.531-1.042c1.002,0,1.817,0.344,2.446,1.03
			c0.639,0.678,0.957,1.635,0.957,2.87c0,0.081,0,0.193,0,0.339h-5.595c0.048,0.823,0.282,1.457,0.702,1.901
			c0.42,0.437,0.94,0.654,1.563,0.654c0.468,0,0.868-0.121,1.199-0.363C284.442,123.565,284.704,123.174,284.898,122.641z
			 M280.719,120.583h4.19c-0.057-0.63-0.218-1.103-0.484-1.417c-0.403-0.493-0.929-0.739-1.574-0.739
			c-0.582,0-1.074,0.198-1.478,0.594C280.978,119.408,280.76,119.928,280.719,120.583z M292.698,124.131
			c-0.477,0.396-0.933,0.679-1.368,0.848c-0.429,0.162-0.893,0.242-1.394,0.242c-0.823,0-1.457-0.201-1.901-0.605
			c-0.443-0.403-0.666-0.916-0.666-1.538c0-0.371,0.085-0.706,0.255-1.005c0.169-0.307,0.387-0.549,0.653-0.727
			c0.274-0.186,0.582-0.327,0.921-0.424c0.242-0.064,0.617-0.13,1.126-0.194c1.025-0.121,1.78-0.266,2.265-0.436
			c0.009-0.178,0.013-0.287,0.013-0.327c0-0.517-0.121-0.884-0.363-1.102c-0.323-0.283-0.808-0.425-1.454-0.425
			c-0.597,0-1.037,0.105-1.319,0.315c-0.283,0.21-0.493,0.577-0.63,1.102l-1.248-0.169c0.113-0.525,0.299-0.949,0.558-1.271
			c0.258-0.331,0.634-0.586,1.126-0.764c0.493-0.178,1.058-0.267,1.695-0.267c0.646,0,1.167,0.077,1.563,0.23
			c0.404,0.146,0.698,0.335,0.885,0.569c0.193,0.226,0.326,0.513,0.399,0.86c0.04,0.218,0.061,0.609,0.061,1.174v1.696
			c0,1.179,0.028,1.926,0.085,2.24c0.057,0.307,0.161,0.605,0.314,0.896h-1.32C292.815,124.785,292.73,124.478,292.698,124.131z
			 M292.589,121.285c-0.46,0.193-1.15,0.355-2.07,0.484c-0.525,0.072-0.896,0.157-1.114,0.254c-0.219,0.098-0.388,0.234-0.509,0.412
			c-0.113,0.178-0.17,0.38-0.17,0.605c0,0.339,0.129,0.622,0.388,0.848c0.259,0.227,0.634,0.339,1.126,0.339
			c0.484,0,0.917-0.104,1.296-0.314c0.388-0.218,0.671-0.513,0.848-0.884c0.138-0.291,0.206-0.715,0.206-1.271V121.285z
			 M300.704,125.052v-0.945c-0.469,0.743-1.167,1.114-2.096,1.114c-0.597,0-1.146-0.165-1.646-0.496
			c-0.501-0.331-0.889-0.791-1.163-1.381c-0.274-0.589-0.411-1.268-0.411-2.034c0-0.751,0.125-1.43,0.375-2.035
			c0.25-0.613,0.622-1.082,1.114-1.404c0.501-0.323,1.062-0.485,1.684-0.485c0.452,0,0.852,0.098,1.199,0.291
			c0.354,0.186,0.642,0.432,0.859,0.739v-3.719h1.271v10.355H300.704z M296.695,121.309c0,0.961,0.202,1.679,0.605,2.155
			s0.88,0.715,1.429,0.715c0.558,0,1.03-0.227,1.417-0.679c0.388-0.46,0.582-1.154,0.582-2.083c0-1.025-0.198-1.776-0.594-2.252
			c-0.396-0.485-0.884-0.728-1.466-0.728c-0.557,0-1.025,0.23-1.404,0.69C296.885,119.59,296.695,120.316,296.695,121.309z
			 M303.889,116.162v-1.466h1.271v1.466H303.889z M303.889,125.052v-7.497h1.271v7.497H303.889z M307.102,125.052v-7.497h1.139
			v1.065c0.549-0.823,1.344-1.235,2.386-1.235c0.452,0,0.868,0.081,1.247,0.243c0.38,0.161,0.662,0.375,0.848,0.642
			c0.194,0.258,0.327,0.569,0.4,0.933c0.048,0.234,0.072,0.646,0.072,1.235v4.614h-1.271v-4.566c0-0.517-0.053-0.9-0.157-1.15
			c-0.098-0.258-0.271-0.464-0.521-0.617c-0.25-0.153-0.545-0.23-0.884-0.23c-0.541,0-1.009,0.174-1.405,0.521
			c-0.387,0.34-0.581,0.989-0.581,1.95v4.094H307.102z M314.902,125.669l1.235,0.182c0.057,0.388,0.202,0.666,0.437,0.836
			c0.314,0.234,0.746,0.352,1.296,0.352c0.589,0,1.041-0.117,1.356-0.352c0.322-0.234,0.541-0.562,0.653-0.981
			c0.064-0.258,0.093-0.803,0.085-1.635c-0.549,0.654-1.239,0.981-2.071,0.981c-1.033,0-1.832-0.372-2.397-1.114
			c-0.565-0.743-0.848-1.635-0.848-2.677c0-0.719,0.129-1.381,0.388-1.986c0.266-0.605,0.642-1.069,1.126-1.393
			c0.492-0.331,1.074-0.497,1.744-0.497c0.88,0,1.606,0.355,2.18,1.066v-0.896h1.175v6.479c0,1.171-0.121,1.998-0.363,2.482
			c-0.234,0.484-0.609,0.868-1.126,1.151c-0.509,0.282-1.143,0.424-1.901,0.424c-0.889,0-1.611-0.202-2.168-0.606
			C315.153,127.09,314.886,126.484,314.902,125.669z M315.956,121.164c0,0.984,0.194,1.703,0.581,2.155
			c0.396,0.452,0.889,0.679,1.478,0.679c0.582,0,1.07-0.223,1.466-0.666c0.396-0.452,0.594-1.159,0.594-2.12
			c0-0.92-0.206-1.61-0.618-2.07c-0.403-0.469-0.892-0.703-1.465-0.703c-0.565,0-1.046,0.23-1.441,0.69
			C316.154,119.581,315.956,120.26,315.956,121.164z"/>
		<path fill="#FFF2CC" d="M365.955,104.365L365.955,104.365c0-4.231,3.431-7.662,7.662-7.662h79.008c2.032,0,3.98,0.808,5.417,2.244
			c1.438,1.437,2.244,3.386,2.244,5.418v30.646c0,4.231-3.43,7.662-7.661,7.662h-79.008c-4.231,0-7.662-3.431-7.662-7.662V104.365z"
			/>
		<path fill="none" stroke="#000000" stroke-linejoin="round" stroke-miterlimit="10" d="M365.955,104.365L365.955,104.365
			c0-4.231,3.431-7.662,7.662-7.662h79.008c2.032,0,3.98,0.808,5.417,2.244c1.438,1.437,2.244,3.386,2.244,5.418v30.646
			c0,4.231-3.43,7.662-7.661,7.662h-79.008c-4.231,0-7.662-3.431-7.662-7.662V104.365z"/>
		<path d="M398.963,116.525v-10.354h3.911c0.687,0,1.211,0.032,1.575,0.097c0.5,0.089,0.924,0.254,1.271,0.496
			c0.347,0.234,0.625,0.565,0.835,0.993s0.315,0.9,0.315,1.417c0,0.88-0.283,1.627-0.848,2.24c-0.558,0.606-1.57,0.909-3.04,0.909
			h-2.652v4.202H398.963z M400.331,111.099h2.677c0.888,0,1.518-0.165,1.889-0.496c0.372-0.331,0.558-0.796,0.558-1.394
			c0-0.436-0.109-0.807-0.327-1.114c-0.218-0.307-0.509-0.508-0.872-0.605c-0.226-0.064-0.649-0.097-1.271-0.097h-2.652V111.099z
			 M413.585,114.115l1.309,0.157c-0.21,0.768-0.594,1.365-1.151,1.793c-0.557,0.42-1.271,0.63-2.144,0.63
			c-1.098,0-1.97-0.336-2.615-1.006c-0.639-0.678-0.957-1.627-0.957-2.846c0-1.268,0.323-2.249,0.969-2.943
			c0.654-0.694,1.498-1.041,2.531-1.041c1.001,0,1.816,0.343,2.446,1.029c0.638,0.678,0.957,1.635,0.957,2.87
			c0,0.081,0,0.193,0,0.339h-5.596c0.049,0.824,0.283,1.458,0.703,1.901c0.419,0.437,0.94,0.654,1.562,0.654
			c0.469,0,0.868-0.121,1.199-0.363C413.129,115.04,413.391,114.648,413.585,114.115z M409.407,112.056h4.19
			c-0.057-0.63-0.219-1.103-0.484-1.417c-0.404-0.493-0.929-0.739-1.575-0.739c-0.581,0-1.073,0.198-1.478,0.594
			C409.665,110.882,409.447,111.402,409.407,112.056z M421.628,114.115l1.308,0.157c-0.21,0.768-0.594,1.365-1.15,1.793
			c-0.558,0.42-1.271,0.63-2.144,0.63c-1.099,0-1.971-0.336-2.616-1.006c-0.638-0.678-0.957-1.627-0.957-2.846
			c0-1.268,0.323-2.249,0.969-2.943c0.654-0.694,1.498-1.041,2.531-1.041c1.001,0,1.817,0.343,2.447,1.029
			c0.638,0.678,0.956,1.635,0.956,2.87c0,0.081,0,0.193,0,0.339h-5.595c0.048,0.824,0.282,1.458,0.702,1.901
			c0.42,0.437,0.94,0.654,1.563,0.654c0.468,0,0.867-0.121,1.198-0.363C421.172,115.04,421.433,114.648,421.628,114.115z
			 M417.449,112.056h4.19c-0.057-0.63-0.218-1.103-0.484-1.417c-0.404-0.493-0.929-0.739-1.574-0.739
			c-0.582,0-1.074,0.198-1.478,0.594C417.707,110.882,417.489,111.402,417.449,112.056z M424.522,116.525v-7.497h1.139v1.139
			c0.291-0.533,0.558-0.884,0.8-1.054c0.25-0.169,0.524-0.254,0.823-0.254c0.428,0,0.864,0.137,1.308,0.411l-0.436,1.175
			c-0.315-0.186-0.626-0.278-0.933-0.278c-0.283,0-0.533,0.085-0.751,0.255c-0.218,0.169-0.375,0.399-0.473,0.689
			c-0.146,0.452-0.218,0.949-0.218,1.49v3.924H424.522z"/>
		<path d="M393.173,133.578v-7.497h1.138v1.139c0.291-0.533,0.558-0.885,0.8-1.054c0.25-0.17,0.524-0.255,0.823-0.255
			c0.428,0,0.864,0.138,1.309,0.412l-0.437,1.175c-0.314-0.186-0.626-0.278-0.933-0.278c-0.282,0-0.532,0.084-0.751,0.254
			c-0.218,0.17-0.375,0.399-0.472,0.69c-0.146,0.452-0.219,0.948-0.219,1.489v3.925H393.173z M403.135,131.168l1.309,0.157
			c-0.21,0.767-0.594,1.364-1.15,1.792c-0.558,0.42-1.272,0.63-2.144,0.63c-1.099,0-1.971-0.335-2.616-1.005
			c-0.638-0.679-0.957-1.627-0.957-2.847c0-1.268,0.323-2.248,0.969-2.942c0.654-0.694,1.498-1.042,2.531-1.042
			c1.001,0,1.816,0.344,2.446,1.029c0.638,0.679,0.957,1.636,0.957,2.871c0,0.08,0,0.193,0,0.339h-5.596
			c0.049,0.823,0.283,1.457,0.703,1.901c0.42,0.436,0.94,0.654,1.563,0.654c0.468,0,0.867-0.121,1.198-0.363
			C402.678,132.092,402.941,131.7,403.135,131.168z M398.957,129.108h4.19c-0.057-0.63-0.218-1.102-0.484-1.417
			c-0.404-0.492-0.929-0.738-1.574-0.738c-0.582,0-1.074,0.197-1.478,0.594C399.215,127.933,398.997,128.455,398.957,129.108z
			 M408.125,133.578l-2.857-7.497h1.344l1.611,4.493c0.169,0.484,0.331,0.985,0.484,1.502c0.104-0.396,0.262-0.868,0.472-1.417
			l1.659-4.578h1.309l-2.834,7.497H408.125z M413.272,124.688v-1.466h1.271v1.466H413.272z M413.272,133.578v-7.497h1.271v7.497
			H413.272z M421.621,131.168l1.308,0.157c-0.21,0.767-0.594,1.364-1.15,1.792c-0.558,0.42-1.272,0.63-2.145,0.63
			c-1.098,0-1.97-0.335-2.615-1.005c-0.639-0.679-0.957-1.627-0.957-2.847c0-1.268,0.323-2.248,0.969-2.942
			c0.654-0.694,1.498-1.042,2.531-1.042c1.001,0,1.816,0.344,2.446,1.029c0.639,0.679,0.957,1.636,0.957,2.871
			c0,0.08,0,0.193,0,0.339h-5.596c0.049,0.823,0.283,1.457,0.703,1.901c0.419,0.436,0.94,0.654,1.562,0.654
			c0.469,0,0.868-0.121,1.199-0.363C421.164,132.092,421.427,131.7,421.621,131.168z M417.442,129.108h4.19
			c-0.057-0.63-0.218-1.102-0.484-1.417c-0.404-0.492-0.929-0.738-1.575-0.738c-0.581,0-1.073,0.197-1.478,0.594
			C417.7,127.933,417.482,128.455,417.442,129.108z M425.908,133.578l-2.301-7.497h1.32l1.187,4.323l0.448,1.611
			c0.024-0.081,0.153-0.598,0.388-1.551l1.199-4.384h1.308l1.114,4.348l0.375,1.43l0.437-1.441l1.283-4.336h1.235l-2.35,7.497
			h-1.319l-1.188-4.493l-0.29-1.272l-1.515,5.766H425.908z"/>
		<path fill="#FFF2CC" d="M483.779,104.365L483.779,104.365c0-4.231,3.431-7.662,7.662-7.662h79.008c2.031,0,3.98,0.808,5.417,2.244
			c1.438,1.437,2.244,3.386,2.244,5.418v30.646c0,4.231-3.43,7.662-7.661,7.662h-79.008c-4.231,0-7.662-3.431-7.662-7.662V104.365z"
			/>
		<path fill="none" stroke="#000000" stroke-linejoin="round" stroke-miterlimit="10" d="M483.779,104.365L483.779,104.365
			c0-4.231,3.431-7.662,7.662-7.662h79.008c2.031,0,3.98,0.808,5.417,2.244c1.438,1.437,2.244,3.386,2.244,5.418v30.646
			c0,4.231-3.43,7.662-7.661,7.662h-79.008c-4.231,0-7.662-3.431-7.662-7.662V104.365z"/>
		<path d="M512.118,121.418l1.368,0.352c-0.29,1.122-0.807,1.982-1.55,2.579c-0.743,0.59-1.655,0.885-2.737,0.885
			c-1.114,0-2.022-0.227-2.725-0.679c-0.694-0.46-1.228-1.118-1.599-1.974c-0.363-0.864-0.545-1.793-0.545-2.786
			c0-1.073,0.206-2.01,0.617-2.81c0.412-0.808,0.997-1.417,1.756-1.828c0.768-0.42,1.607-0.63,2.52-0.63
			c1.033,0,1.901,0.262,2.604,0.787c0.711,0.524,1.203,1.268,1.478,2.229l-1.344,0.314c-0.242-0.751-0.594-1.296-1.054-1.635
			c-0.452-0.348-1.021-0.521-1.708-0.521c-0.799,0-1.465,0.189-1.998,0.569c-0.533,0.379-0.908,0.892-1.126,1.538
			c-0.219,0.638-0.327,1.3-0.327,1.985c0,0.881,0.129,1.647,0.388,2.302c0.258,0.653,0.657,1.146,1.198,1.478
			c0.541,0.322,1.127,0.484,1.757,0.484c0.767,0,1.417-0.223,1.949-0.666C511.573,122.948,511.932,122.29,512.118,121.418z
			 M519.921,125.052v-1.103c-0.581,0.848-1.372,1.271-2.374,1.271c-0.443,0-0.859-0.084-1.247-0.254
			c-0.38-0.17-0.662-0.384-0.848-0.642c-0.186-0.259-0.315-0.573-0.388-0.945c-0.057-0.242-0.085-0.638-0.085-1.187v-4.639h1.271
			v4.154c0,0.662,0.028,1.11,0.085,1.344c0.081,0.331,0.25,0.594,0.509,0.788c0.259,0.193,0.577,0.29,0.957,0.29
			c0.379,0,0.734-0.097,1.065-0.29c0.339-0.202,0.577-0.469,0.715-0.8c0.137-0.339,0.206-0.827,0.206-1.466v-4.021h1.271v7.497
			H519.921z M523.046,125.052v-7.497h1.139v1.139c0.29-0.533,0.557-0.884,0.799-1.054c0.251-0.17,0.525-0.255,0.824-0.255
			c0.428,0,0.863,0.138,1.308,0.412l-0.436,1.175c-0.315-0.186-0.626-0.278-0.933-0.278c-0.283,0-0.533,0.085-0.751,0.254
			c-0.218,0.17-0.376,0.4-0.473,0.69c-0.146,0.452-0.218,0.949-0.218,1.49v3.924H523.046z M532.766,124.131
			c-0.477,0.396-0.933,0.679-1.368,0.848c-0.429,0.162-0.893,0.242-1.394,0.242c-0.823,0-1.457-0.201-1.901-0.605
			c-0.443-0.403-0.666-0.916-0.666-1.538c0-0.371,0.085-0.706,0.255-1.005c0.169-0.307,0.387-0.549,0.653-0.727
			c0.274-0.186,0.582-0.327,0.921-0.424c0.242-0.064,0.617-0.13,1.126-0.194c1.025-0.121,1.78-0.266,2.265-0.436
			c0.009-0.178,0.013-0.287,0.013-0.327c0-0.517-0.121-0.884-0.363-1.102c-0.323-0.283-0.808-0.425-1.454-0.425
			c-0.597,0-1.037,0.105-1.319,0.315c-0.283,0.21-0.493,0.577-0.63,1.102l-1.248-0.169c0.113-0.525,0.299-0.949,0.558-1.271
			c0.258-0.331,0.634-0.586,1.126-0.764c0.493-0.178,1.058-0.267,1.695-0.267c0.646,0,1.167,0.077,1.563,0.23
			c0.404,0.146,0.698,0.335,0.885,0.569c0.193,0.226,0.326,0.513,0.399,0.86c0.04,0.218,0.061,0.609,0.061,1.174v1.696
			c0,1.179,0.028,1.926,0.085,2.24c0.057,0.307,0.161,0.605,0.314,0.896h-1.32C532.884,124.785,532.799,124.478,532.766,124.131z
			 M532.657,121.285c-0.46,0.193-1.15,0.355-2.07,0.484c-0.525,0.072-0.896,0.157-1.114,0.254c-0.219,0.098-0.388,0.234-0.509,0.412
			c-0.113,0.178-0.17,0.38-0.17,0.605c0,0.339,0.129,0.622,0.388,0.848c0.259,0.227,0.634,0.339,1.126,0.339
			c0.484,0,0.917-0.104,1.296-0.314c0.388-0.218,0.671-0.513,0.848-0.884c0.138-0.291,0.206-0.715,0.206-1.271V121.285z
			 M538.689,123.913l0.182,1.126c-0.355,0.073-0.674,0.109-0.957,0.109c-0.46,0-0.819-0.072-1.078-0.218
			c-0.25-0.146-0.428-0.335-0.532-0.569c-0.105-0.242-0.157-0.743-0.157-1.502v-4.323h-0.933v-0.981h0.933v-1.853l1.259-0.764v2.616
			h1.284v0.981h-1.284v4.396c0,0.355,0.021,0.586,0.061,0.69c0.049,0.105,0.121,0.19,0.219,0.255
			c0.104,0.057,0.254,0.085,0.447,0.085C538.269,123.962,538.455,123.945,538.689,123.913z M539.933,116.162v-1.466h1.271v1.466
			H539.933z M539.933,125.052v-7.497h1.271v7.497H539.933z M542.674,121.297c0-1.389,0.384-2.414,1.15-3.076
			c0.646-0.557,1.434-0.836,2.361-0.836c1.034,0,1.878,0.34,2.531,1.018c0.654,0.67,0.981,1.603,0.981,2.798
			c0,0.961-0.146,1.72-0.436,2.277c-0.291,0.549-0.715,0.977-1.272,1.283c-0.549,0.307-1.15,0.46-1.805,0.46
			c-1.049,0-1.896-0.335-2.543-1.005C542.997,123.538,542.674,122.564,542.674,121.297z M543.981,121.297
			c0,0.961,0.206,1.684,0.618,2.168c0.42,0.477,0.948,0.715,1.586,0.715c0.63,0,1.155-0.238,1.575-0.715
			c0.42-0.484,0.63-1.219,0.63-2.204c0-0.929-0.21-1.631-0.63-2.107s-0.945-0.715-1.575-0.715c-0.638,0-1.166,0.238-1.586,0.715
			C544.187,119.622,543.981,120.336,543.981,121.297z M551.188,125.052v-7.497h1.139v1.065c0.549-0.823,1.344-1.235,2.386-1.235
			c0.452,0,0.868,0.081,1.247,0.243c0.38,0.161,0.662,0.375,0.848,0.642c0.194,0.258,0.327,0.569,0.4,0.933
			c0.048,0.234,0.072,0.646,0.072,1.235v4.614h-1.271v-4.566c0-0.517-0.053-0.9-0.157-1.15c-0.098-0.258-0.271-0.464-0.521-0.617
			c-0.25-0.153-0.545-0.23-0.884-0.23c-0.541,0-1.009,0.174-1.405,0.521c-0.387,0.34-0.581,0.989-0.581,1.95v4.094H551.188z"/>
		<path fill-opacity="0" d="M601.603,103.404h47.557v32.566h-47.557V103.404z"/>
		<path d="M610.262,124.27v-1.453h1.454v1.453H610.262z M615.095,124.27v-1.453h1.44v1.453H615.095z M619.903,124.27v-1.453h1.453
			v1.453H619.903z"/>
		<path fill-opacity="0" d="M177.472,142.673v72.92"/>
		<path fill="none" stroke="#000000" stroke-linejoin="round" stroke-miterlimit="10" d="M177.472,142.673v68.27"/>
		<path stroke="#000000" stroke-miterlimit="10" d="M176.192,210.942l1.28,3.518l1.28-3.518H176.192z"/>
		<path fill-opacity="0" d="M295.297,142.673v72.14"/>
		<path fill="none" stroke="#000000" stroke-linejoin="round" stroke-miterlimit="10" d="M295.297,147.323v67.489"/>
		<path stroke="#000000" stroke-miterlimit="10" d="M296.577,147.323l-1.28-3.518l-1.28,3.518H296.577z"/>
		<path fill-opacity="0" d="M413.121,142.673v71.334"/>
		<path fill="none" stroke="#000000" stroke-linejoin="round" stroke-miterlimit="10" d="M413.121,147.323v62.032"/>
		<path stroke="#000000" stroke-miterlimit="10" d="M414.401,147.323l-1.28-3.518l-1.28,3.518H414.401z"/>
		<path stroke="#000000" stroke-miterlimit="10" d="M411.841,209.355l1.28,3.518l1.28-3.518H411.841z"/>
		<path fill-opacity="0" d="M530.945,142.673v72.14"/>
		<path fill="none" stroke="#000000" stroke-linejoin="round" stroke-miterlimit="10" d="M530.945,147.323v62.838"/>
		<path stroke="#000000" stroke-miterlimit="10" d="M532.225,147.323l-1.28-3.518l-1.28,3.518H532.225z"/>
		<path stroke="#000000" stroke-miterlimit="10" d="M529.665,210.161l1.28,3.518l1.28-3.518H529.665z"/>
		<path fill-opacity="0" d="M121.421,95.91L121.421,95.91c0-6.566,5.323-11.89,11.89-11.89h512.838c3.153,0,6.178,1.253,8.407,3.482
			s3.482,5.254,3.482,8.407v47.556c0,6.566-5.323,11.889-11.89,11.889H133.31c-6.566,0-11.89-5.322-11.89-11.889V95.91z"/>
		<path fill="none" stroke="#6AA84F" stroke-width="3" stroke-linejoin="round" stroke-miterlimit="10" d="M121.421,95.91
			L121.421,95.91c0-6.566,5.323-11.89,11.89-11.89h512.838c3.153,0,6.178,1.253,8.407,3.482s3.482,5.254,3.482,8.407v47.556
			c0,6.566-5.323,11.889-11.89,11.889H133.31c-6.566,0-11.89-5.322-11.89-11.889V95.91z"/>
	</g>
</g>
</svg>
